<svg xmlns="http://www.w3.org/2000/svg" width="54.28734" height="62.39205" viewBox="0 0 54.28734 62.39205"><g id="bf0fcf01-cb65-4374-a319-5d4c1fa73826" data-name="Layer 2"><g id="a79d3692-29ad-409c-91a1-16c3ce89a717" data-name="Layer 1"><path d="M26.05566,49.5H8.91406a.99974.99974,0,0,1-1-1L7.91357,14.085a1.00026,1.00026,0,0,1,1-1h27.832a.99974.99974,0,0,1,1,1V35.24707a1,1,0,1,1-2,0V15.085H9.91357L9.91406,47.5h16.1416a1,1,0,1,1,0,2Z"/><path d="M26.2749,29.91211H19.63232a4.42115,4.42115,0,0,1-4.41552-4.416V21.99121a1,1,0,0,1,2,0v3.50488a2.41854,2.41854,0,0,0,2.41552,2.416H26.2749a2.41855,2.41855,0,0,0,2.41553-2.416V21.99121a1,1,0,0,1,2,0v3.50488A4.42116,4.42116,0,0,1,26.2749,29.91211Z"/><path d="M25.626,15.085a.99973.99973,0,0,1-1-1V10.34668a2.78483,2.78483,0,0,0-2.90235-2.64356H14.13428a2.78483,2.78483,0,0,0-2.90235,2.64356V14.085a1,1,0,0,1-2,0V10.34668a4.78361,4.78361,0,0,1,4.90235-4.64356h7.58935A4.78361,4.78361,0,0,1,26.626,10.34668V14.085A.99974.99974,0,0,1,25.626,15.085Z"/><path d="M31.978,9.66309a.49972.49972,0,0,1-.5-.5V7.3125a.5.5,0,1,1,1,0V9.16309A.49972.49972,0,0,1,31.978,9.66309Z"/><path d="M31.978,2.85059a.49972.49972,0,0,1-.5-.5V.5a.5.5,0,1,1,1,0V2.35059A.49972.49972,0,0,1,31.978,2.85059Z"/><path d="M29.49707,5.33105H27.64648a.5.5,0,0,1,0-1h1.85059a.5.5,0,0,1,0,1Z"/><path d="M36.30957,5.33105H34.4585a.5.5,0,0,1,0-1h1.85107a.5.5,0,0,1,0,1Z"/><path d="M38.71875,12.17969a.49972.49972,0,0,1-.5-.5V10.46484a.5.5,0,0,1,1,0v1.21485A.49972.49972,0,0,1,38.71875,12.17969Z"/><path d="M38.71875,11.15723a.49972.49972,0,0,1-.5-.5V7.82812a.5.5,0,1,1,1,0v2.82911A.49972.49972,0,0,1,38.71875,11.15723Z"/><path d="M38.00781,10.25391H36.793a.5.5,0,0,1,0-1h1.21484a.5.5,0,0,1,0,1Z"/><path d="M40.645,10.25391H38.10254a.5.5,0,0,1,0-1H40.645a.5.5,0,0,1,0,1Z"/><path d="M8.91406,49.5a1.00972,1.00972,0,0,1-.35937-.06641l-3.376-1.2998-3.856,1.3125A.99924.99924,0,0,1,.00049,48.5L0,14.085a1.00026,1.00026,0,0,1,1-1H8.91357a1,1,0,0,1,0,2H2l.00049,32.01856,2.877-.9795a.99734.99734,0,0,1,.68164.0127l3.71436,1.42969A1.00024,1.00024,0,0,1,8.91406,49.5Z"/><path d="M39.89476,33.60739A14.39233,14.39233,0,1,0,54.28734,48,14.40854,14.40854,0,0,0,39.89476,33.60739Z" style="fill:#ea1c24"/><path d="M37.13085,54.28854a4.514,4.514,0,0,1-1.69629-.896l1.05029-2.01465a3.24024,3.24024,0,0,0,1.13672.69727,4.11887,4.11887,0,0,0,1.44678.25,2.88618,2.88618,0,0,0,1.791-.49951,1.71358,1.71358,0,0,0,.05176-2.65235,2.5194,2.5194,0,0,0-1.61914-.48242,3.462,3.462,0,0,0-1.6875.41358l-.72363-1.395,3.25537-3.73731h-4.082V41.69869H43.6494v1.70508l-3.1001,3.28955A4.28445,4.28445,0,0,1,42.272,47.227a3.2202,3.2202,0,0,1,1.53271,1.24024,3.54106,3.54106,0,0,1,.55079,1.98047,3.9833,3.9833,0,0,1-.60254,2.187,3.92868,3.92868,0,0,1-1.731,1.46435,6.29886,6.29886,0,0,1-2.64355.51661A7.58376,7.58376,0,0,1,37.13085,54.28854Z" style="fill:#fff"/></g></g></svg>