<svg width="17" height="17" viewBox="0 0 17 17" fill="none" xmlns="http://www.w3.org/2000/svg">
<path d="M7.89314 3.03599H3.03599C2.3919 3.03599 1.77418 3.29186 1.31873 3.74731C0.863289 4.20275 0.607422 4.82047 0.607422 5.46456V13.9646C0.607422 14.6087 0.863289 15.2264 1.31873 15.6818C1.77418 16.1373 2.3919 16.3931 3.03599 16.3931H11.536C12.1801 16.3931 12.7978 16.1373 13.2533 15.6818C13.7087 15.2264 13.9646 14.6087 13.9646 13.9646V10.3217M11.536 0.607422V4.25028" stroke="black" stroke-linecap="round" stroke-linejoin="round"/>
<path d="M11.536 7.58956C11.4555 7.58956 11.3783 7.55758 11.3213 7.50065C11.2644 7.44372 11.2324 7.36651 11.2324 7.28599C11.2324 7.20548 11.2644 7.12827 11.3213 7.07134C11.3783 7.0144 11.4555 6.98242 11.536 6.98242M11.536 7.58956C11.6165 7.58956 11.6937 7.55758 11.7507 7.50065C11.8076 7.44372 11.8396 7.36651 11.8396 7.28599C11.8396 7.20548 11.8076 7.12827 11.7507 7.07134C11.6937 7.0144 11.6165 6.98242 11.536 6.98242" stroke="#EB1C24" stroke-linecap="round" stroke-linejoin="round"/>
</svg>
