<svg width="17" height="17" viewBox="0 0 17 17" fill="none" xmlns="http://www.w3.org/2000/svg">
<path d="M8.45897 0.885742C6.82343 0.885742 5.54206 0.885742 4.54189 1.02033C3.51906 1.15774 2.71156 1.44533 2.0776 2.07858C1.44364 2.71253 1.15677 3.52003 1.01935 4.54358C0.884766 5.54303 0.884766 6.82441 0.884766 8.45995V8.5407C0.884766 10.1762 0.884766 11.4576 1.01935 12.4578C1.15677 13.4806 1.44435 14.2881 2.0776 14.9221C2.71156 15.556 3.51906 15.8429 4.5426 15.9803C5.54206 16.1149 6.82343 16.1149 8.45897 16.1149H8.53972C10.1753 16.1149 11.4566 16.1149 12.4568 15.9803C13.4796 15.8429 14.2871 15.5553 14.9211 14.9221C15.5551 14.2881 15.8419 13.4806 15.9793 12.4571C16.1139 11.4576 16.1139 10.1762 16.1139 8.5407V7.43783C16.1139 7.29693 16.058 7.1618 15.9583 7.06218C15.8587 6.96255 15.7236 6.90658 15.5827 6.90658C15.4418 6.90658 15.3067 6.96255 15.207 7.06218C15.1074 7.1618 15.0514 7.29693 15.0514 7.43783V8.50033C15.0514 10.1847 15.05 11.3946 14.9268 12.3154C14.8049 13.2214 14.5726 13.7675 14.1696 14.1712C13.7658 14.5743 13.2204 14.8059 12.3144 14.9277C11.3936 15.051 10.1838 15.0524 8.49935 15.0524C6.81493 15.0524 5.6051 15.051 4.68427 14.9277C3.77831 14.8059 3.23218 14.5736 2.82843 14.1705C2.42539 13.7668 2.19377 13.2214 2.07193 12.3154C1.94868 11.3946 1.94727 10.1847 1.94727 8.50033C1.94727 6.81591 1.94868 5.60608 2.07193 4.68524C2.19377 3.77928 2.4261 3.23316 2.82914 2.82941C3.23289 2.42637 3.77831 2.19474 4.68427 2.07291C5.6051 1.94966 6.81493 1.94824 8.49935 1.94824H9.56185C9.70275 1.94824 9.83787 1.89227 9.9375 1.79264C10.0371 1.69301 10.0931 1.55789 10.0931 1.41699C10.0931 1.2761 10.0371 1.14097 9.9375 1.04134C9.83787 0.941713 9.70275 0.885742 9.56185 0.885742H8.45897Z" fill="black"/>
<path fill-rule="evenodd" clip-rule="evenodd" d="M13.459 0.885742C12.7545 0.885742 12.0789 1.1656 11.5807 1.66374C11.0826 2.16188 10.8027 2.83751 10.8027 3.54199C10.8027 4.24647 11.0826 4.9221 11.5807 5.42024C12.0789 5.91839 12.7545 6.19824 13.459 6.19824C14.1635 6.19824 14.8391 5.91839 15.3372 5.42024C15.8354 4.9221 16.1152 4.24647 16.1152 3.54199C16.1152 2.83751 15.8354 2.16188 15.3372 1.66374C14.8391 1.1656 14.1635 0.885742 13.459 0.885742ZM11.8652 3.54199C11.8652 3.1193 12.0331 2.71393 12.332 2.41504C12.6309 2.11615 13.0363 1.94824 13.459 1.94824C13.8817 1.94824 14.2871 2.11615 14.5859 2.41504C14.8848 2.71393 15.0527 3.1193 15.0527 3.54199C15.0527 3.96468 14.8848 4.37006 14.5859 4.66894C14.2871 4.96783 13.8817 5.13574 13.459 5.13574C13.0363 5.13574 12.6309 4.96783 12.332 4.66894C12.0331 4.37006 11.8652 3.96468 11.8652 3.54199Z" fill="black"/>
<path fill-rule="evenodd" clip-rule="evenodd" d="M13.459 0.885742C12.7545 0.885742 12.0789 1.1656 11.5807 1.66374C11.0826 2.16188 10.8027 2.83751 10.8027 3.54199C10.8027 4.24647 11.0826 4.9221 11.5807 5.42024C12.0789 5.91839 12.7545 6.19824 13.459 6.19824C14.1635 6.19824 14.8391 5.91839 15.3372 5.42024C15.8354 4.9221 16.1152 4.24647 16.1152 3.54199C16.1152 2.83751 15.8354 2.16188 15.3372 1.66374C14.8391 1.1656 14.1635 0.885742 13.459 0.885742ZM11.8652 3.54199C11.8652 3.1193 12.0331 2.71393 12.332 2.41504C12.6309 2.11615 13.0363 1.94824 13.459 1.94824C13.8817 1.94824 14.2871 2.11615 14.5859 2.41504C14.8848 2.71393 15.0527 3.1193 15.0527 3.54199C15.0527 3.96468 14.8848 4.37006 14.5859 4.66894C14.2871 4.96783 13.8817 5.13574 13.459 5.13574C13.0363 5.13574 12.6309 4.96783 12.332 4.66894C12.0331 4.37006 11.8652 3.96468 11.8652 3.54199Z" fill="#EB1C24"/>
</svg>
