<?xml version="1.0" encoding="UTF-8"?>
<svg id="Layer_2" data-name="Layer 2" xmlns="http://www.w3.org/2000/svg" width="53.946" height="62" viewBox="0 0 53.946 62">
  <g id="Layer_1-2" data-name="Layer 1">
    <g>
      <g>
        <path d="m36.515,13.003h-10.056v-2.721c0-2.544-2.185-4.614-4.872-4.614h-7.542c-2.686,0-4.872,2.07-4.872,4.614v2.721H.994c-.263,0-.516.105-.703.291s-.291.439-.291.703v34.199c0,.32.155.621.416.808.261.186.596.236.899.132l3.832-1.304,3.355,1.292c.117.045.238.066.357.066h17.034c.549,0,.994-.444.994-.994s-.445-.994-.994-.994H9.852V14.99s25.669,0,25.669,0v20.035c0,.549.445.994.994.994s.994-.444.994-.994V13.996c0-.549-.445-.994-.994-.994Zm-25.353-2.721c0-1.449,1.294-2.627,2.884-2.627h7.542c1.591,0,2.884,1.178,2.884,2.627v2.721h-13.31v-2.721Zm-6.315,35.552l-2.859.973V14.99s5.876,0,5.876,0v31.757s-2.34-.901-2.34-.901c-.218-.082-.457-.089-.677-.013Z"/>
        <path d="m29.504,20.859c-.549,0-.994.444-.994.994v3.483c0,1.324-1.077,2.401-2.4,2.401h-6.601c-1.324,0-2.4-1.077-2.4-2.401v-3.483c0-.549-.445-.994-.994-.994s-.994.444-.994.994v3.483c0,2.419,1.969,4.388,4.388,4.388h6.601c2.419,0,4.388-1.969,4.388-4.388v-3.483c0-.549-.445-.994-.994-.994Z"/>
        <path d="m31.777,9.602c.275,0,.497-.222.497-.497v-1.839c0-.275-.222-.497-.497-.497s-.497.222-.497.497v1.839c0,.275.222.497.497.497Z"/>
        <path d="m31.777,2.833c.275,0,.497-.222.497-.497V.497c0-.275-.222-.497-.497-.497s-.497.222-.497.497v1.839c0,.275.222.497.497.497Z"/>
        <path d="m27.473,5.298h1.839c.275,0,.497-.222.497-.497s-.222-.497-.497-.497h-1.839c-.275,0-.497.222-.497.497s.222.497.497.497Z"/>
        <path d="m34.242,5.298h1.839c.275,0,.497-.222.497-.497s-.222-.497-.497-.497h-1.839c-.275,0-.497.222-.497.497s.222.497.497.497Z"/>
        <path d="m40.39,9.196h-1.417v-1.417c0-.275-.222-.497-.497-.497s-.497.222-.497.497v1.417h-.115c-.017,0-.031.008-.047.009-.016-.002-.03-.009-.047-.009h-1.207c-.275,0-.497.222-.497.497s.222.497.497.497h1.207c.017,0,.031-.008.047-.009.016.002.03.009.047.009h.115v1.417c0,.275.222.497.497.497s.497-.222.497-.497v-1.417h1.417c.275,0,.497-.222.497-.497s-.222-.497-.497-.497Z"/>
      </g>
      <path d="m39.644,33.396c-7.886,0-14.302,6.416-14.302,14.302s6.415,14.302,14.302,14.302,14.302-6.415,14.302-14.302-6.416-14.302-14.302-14.302Z" fill="#ea1c24"/>
    </g>
  </g>
</svg>