<svg xmlns="http://www.w3.org/2000/svg" width="54.38281" height="62.8916" viewBox="0 0 54.38281 62.8916"><g id="ae71dbe5-f01c-49f6-a72b-a17779427fdf" data-name="Layer 2"><g id="a364df79-f1af-4e70-b695-be3ac3d14e27" data-name="Layer 1"><path d="M26.05615,49.5H8.91455a.99974.99974,0,0,1-1-1L7.91406,14.085a1.00026,1.00026,0,0,1,1-1H36.74561a.99974.99974,0,0,1,1,1V35.24707a1,1,0,1,1-2,0V15.085H9.91406L9.91455,47.5h16.1416a1,1,0,1,1,0,2Z"/><path d="M26.27539,29.91211H19.63281a4.42125,4.42125,0,0,1-4.416-4.416V21.99121a1,1,0,0,1,2,0v3.50488a2.419,2.419,0,0,0,2.416,2.416h6.64258a2.41855,2.41855,0,0,0,2.41553-2.416V21.99121a1,1,0,0,1,2,0v3.50488A4.42116,4.42116,0,0,1,26.27539,29.91211Z"/><path d="M25.62646,15.085a.99974.99974,0,0,1-1-1V10.34668a2.78482,2.78482,0,0,0-2.90234-2.64356H14.13477a2.78483,2.78483,0,0,0-2.90235,2.64356V14.085a1,1,0,0,1-2,0V10.34668a4.78361,4.78361,0,0,1,4.90235-4.64356h7.58935a4.7836,4.7836,0,0,1,4.90234,4.64356V14.085A.99973.99973,0,0,1,25.62646,15.085Z"/><path d="M31.978,9.66309a.49972.49972,0,0,1-.5-.5V7.3125a.5.5,0,1,1,1,0V9.16309A.49972.49972,0,0,1,31.978,9.66309Z"/><path d="M31.978,2.85059a.49972.49972,0,0,1-.5-.5V.5a.5.5,0,1,1,1,0V2.35059A.49972.49972,0,0,1,31.978,2.85059Z"/><path d="M29.49756,5.33105H27.64648a.5.5,0,0,1,0-1h1.85108a.5.5,0,0,1,0,1Z"/><path d="M36.30957,5.33105H34.459a.5.5,0,0,1,0-1h1.85059a.5.5,0,0,1,0,1Z"/><path d="M38.71924,12.17969a.49972.49972,0,0,1-.5-.5V10.46484a.5.5,0,0,1,1,0v1.21485A.49972.49972,0,0,1,38.71924,12.17969Z"/><path d="M38.71924,11.15723a.49972.49972,0,0,1-.5-.5V7.82812a.5.5,0,1,1,1,0v2.82911A.49972.49972,0,0,1,38.71924,11.15723Z"/><path d="M38.0083,10.25391H36.793a.5.5,0,0,1,0-1H38.0083a.5.5,0,0,1,0,1Z"/><path d="M40.64551,10.25391H38.103a.5.5,0,0,1,0-1h2.54248a.5.5,0,0,1,0,1Z"/><path d="M39.99023,62.8916A14.39209,14.39209,0,1,1,54.38281,48.5,14.408,14.408,0,0,1,39.99023,62.8916Zm0-26.78418A12.39209,12.39209,0,1,0,52.38281,48.5,12.40657,12.40657,0,0,0,39.99023,36.10742Z" style="fill:#ea1c24"/><path d="M45.48291,49.5H34.49805a1,1,0,0,1,0-2H45.48291a1,1,0,1,1,0,2Z" style="fill:#ea1c24"/><path d="M39.99023,54.99219a.99974.99974,0,0,1-1-1V43.00684a1,1,0,0,1,2,0V53.99219A.99974.99974,0,0,1,39.99023,54.99219Z" style="fill:#ea1c24"/><path d="M8.91455,49.5a1.00972,1.00972,0,0,1-.35937-.06641l-3.376-1.2998-3.85645,1.3125A.99924.99924,0,0,1,.00049,48.5L0,14.085a1.00026,1.00026,0,0,1,1-1H8.91406a1,1,0,0,1,0,2H2l.00049,32.01856,2.87744-.9795a.99739.99739,0,0,1,.68164.0127l3.71436,1.42969A1.00024,1.00024,0,0,1,8.91455,49.5Z"/></g></g></svg>