<svg width="12" height="15" viewBox="0 0 12 15" fill="none" xmlns="http://www.w3.org/2000/svg">
<path d="M10.7579 15C10.6205 15.0001 10.4877 14.9622 10.3836 14.8934L0.20123 8.17623C0.139913 8.13596 0.0903232 8.08623 0.0556832 8.03028C0.0210431 7.97434 0.0021287 7.91342 0.000169535 7.85149C-0.00178963 7.78956 0.0132503 7.72801 0.0443116 7.67084C0.0753729 7.61367 0.12176 7.56215 0.180458 7.51965L10.3628 0.113393C10.4743 0.036355 10.6205 -0.00421025 10.7704 0.00034621C10.9203 0.00490267 11.0619 0.0542203 11.165 0.137783C11.2682 0.221347 11.3248 0.332543 11.3227 0.447664C11.3206 0.562785 11.26 0.67272 11.1538 0.75403L1.43411 7.82543L11.133 14.2237C11.2221 14.2824 11.2856 14.3607 11.315 14.4481C11.3444 14.5354 11.3383 14.6275 11.2974 14.7121C11.2566 14.7966 11.183 14.8695 11.0865 14.921C10.9901 14.9725 10.8754 15.0001 10.7579 15Z" fill="black"/>
</svg>
