<?xml version="1.0" encoding="UTF-8"?>
<svg id="Layer_2" data-name="Layer 2" xmlns="http://www.w3.org/2000/svg" width="52" height="63" xmlns:xlink="http://www.w3.org/1999/xlink" viewBox="0 0 52 63">
  <defs>
    <style>
      .cls-1 {
        clip-path: url(#clippath);
      }

      .cls-2 {
        fill: none;
      }
    </style>
    <clipPath id="clippath">
      <rect class="cls-2" width="52" height="63"/>
    </clipPath>
  </defs>
  <g id="Layer_1-2" data-name="Layer 1">
    <g class="cls-1">
      <g>
        <path d="m40.533,32.516c-.042-.193-.221-.322-.417-.308l-10.679.878-.632-2.923s0-.002,0-.003l-1.87-8.647c-.046-.212-.259-.347-.468-.302-.213.046-.348.256-.302.468l1.296,5.99c-.702.829-1.357,1.705-1.94,2.615-.931,1.453-1.631,2.559-2.136,3.378l-.796.084c-.067.007-.131.031-.186.07-.821.58-3.32,2.041-4.453,1.52.381-.583.511-1.224.362-1.837-.35-1.438-2.157-2.239-4.03-1.783-.886.215-1.66.677-2.181,1.3-.549.657-.755,1.415-.58,2.134.283,1.165,1.522,1.911,2.977,1.911.342,0,.696-.041,1.052-.128h0c.727-.177,1.37-.526,1.869-.987.322.203.699.29,1.106.29.239,0,.488-.031.739-.082,1.345-.328,2.388.076,2.968.414.069.599.041,1.604-.633,2.624-.001.002-.003.005-.004.007-.074.096-.144.196-.21.296-.009.012-.016.023-.022.032-.006.009-.009.017-.015.026-.002.003-.005.006-.006.009,0,.001,0,.002,0,.003-.326.523-.468,1.013-.439,1.463-.606.3-1.158.775-1.581,1.387-.518.75-.789,1.611-.763,2.422.028.856.378,1.559.987,1.979.37.255.803.385,1.268.385.301,0,.614-.054.932-.163.768-.263,1.476-.821,1.994-1.572.518-.75.789-1.611.763-2.422-.028-.856-.378-1.559-.987-1.979-.512-.354-1.148-.463-1.819-.323.037-.225.136-.479.316-.772.002-.002.003-.005.005-.007,0,0,.001,0,.002-.002.002-.002.003-.004.005-.006.082-.109.158-.213.229-.322.001-.002.002-.003.003-.005.921-1.165,2.549-2.175,2.565-2.185.057-.035.105-.085.137-.144l.379-.68c1.088-.167,2.401-.381,3.923-.639,5.12-.868,10.965-2.989,11.023-3.01.185-.068.292-.262.25-.454Zm-25.17,3.653h0c-1.453.352-2.831-.187-3.079-1.204-.114-.47.035-.982.419-1.443.413-.494,1.039-.864,1.763-1.04.301-.073.599-.108.885-.108,1.09,0,1.998.506,2.194,1.312.114.47-.035.982-.42,1.443-.413.495-1.039.864-1.762,1.04Zm13.282-3.018l-1.44.118,1.056-1.894.384,1.776Zm-5.874,1.368l.092-.01c-.423.696-.613,1.03-.679,1.149-.242-.109-.524-.21-.838-.286.664-.345,1.197-.696,1.425-.853Zm-.527,6.952c.308,0,.589.082.824.244.398.275.628.757.647,1.356.02.644-.201,1.336-.624,1.949h0c-.423.613-.991,1.065-1.601,1.274-.568.194-1.1.15-1.498-.125s-.628-.756-.647-1.356c-.021-.644.201-1.336.624-1.949.423-.613.991-1.065,1.601-1.274.233-.08.46-.12.674-.12Zm.727-3.653c.109-.639.073-1.19.014-1.549-.02-.129-.042-.236-.063-.318.123-.217.418-.723,1.028-1.709.51-.829,1.24-1.985,2.232-3.532.454-.708.961-1.388,1.491-2.048l.335,1.547-3.69,6.62c-.209.134-.754.499-1.347.989Zm6.158-2.614c-1.244.211-2.349.392-3.305.543l.924-1.657c.012,0,.024.005.036.004l10.12-.832c-2.134.662-5.059,1.481-7.775,1.942Z"/>
        <path d="m30.412,37.594c-.046-.213-.259-.347-.468-.302-.213.046-.348.256-.302.468l.368,1.699c.04.185.203.311.385.311.028,0,.056-.003.084-.009.213-.046.348-.256.302-.468l-.368-1.699Z"/>
        <path d="m36.796,36.284c-.046-.213-.257-.349-.468-.302-.213.046-.348.255-.302.468l.326,1.509c.04.184.203.311.385.311.028,0,.056-.003.084-.009.213-.046.348-.255.302-.468l-.326-1.509Z"/>
        <path d="m34.855,30.88c.04.185.203.311.385.311.028,0,.056-.003.084-.009.213-.046.348-.256.302-.468l-.932-4.31c-.046-.213-.259-.348-.468-.302-.213.046-.348.256-.302.468l.932,4.31Z"/>
        <path d="m39.451,35.246c-.046-.213-.255-.347-.469-.302-.212.046-.347.256-.302.468l.216.999c.04.185.204.311.385.311.028,0,.056-.003.084-.009.212-.046.347-.256.302-.468l-.216-.999Z"/>
        <path d="m37.586,30.352c.04.185.203.311.385.311.028,0,.056-.003.084-.009.213-.046.348-.256.302-.468l-1.685-7.788c-.046-.213-.259-.348-.468-.302-.213.046-.348.256-.302.468l1.685,7.788Z"/>
      </g>
    </g>
  </g>
</svg>