<?xml version="1.0" encoding="UTF-8"?>
<svg id="Layer_2" data-name="Layer 2" xmlns="http://www.w3.org/2000/svg" width="52" height="63" xmlns:xlink="http://www.w3.org/1999/xlink" viewBox="0 0 52 63">
  <defs>
    <style>
      .cls-1 {
        clip-path: url(#clippath);
      }

      .cls-2 {
        fill: none;
      }
    </style>
    <clipPath id="clippath">
      <rect class="cls-2" width="52" height="63"/>
    </clipPath>
  </defs>
  <g id="Layer_1-2" data-name="Layer 1">
    <g class="cls-1">
      <g>
        <path d="m27.402,31.871h-.005c-.218,0-.391.176-.391.394s.179.394.396.394.394-.176.394-.394-.176-.394-.394-.394Z"/>
        <path d="m38.978,24.753c-.112-.172-.339-.229-.519-.13l-6.651,3.633,4.099-6.139c.114-.171.078-.401-.084-.528-.161-.128-.393-.109-.533.042l-8.812,9.529-8.587,3.696c-.057-.074-.108-.153-.174-.222-1.009-1.037-2.739-.996-3.859.093-1.119,1.088-1.208,2.818-.199,3.854.488.502,1.146.752,1.822.752.72,0,1.46-.283,2.037-.844h0c.537-.523.856-1.209.898-1.93.021-.354-.03-.695-.139-1.011l2.398-1.032,3.557.52-.101,3.298-1.523,2.281c-.924-.35-2.007-.169-2.761.564-.502.488-.784,1.143-.794,1.844-.01.701.254,1.363.743,1.865.138.142.292.262.454.367-.081.06-.162.121-.233.195-.631.657-.586,1.64-.584,1.682.011.21.185.372.393.372.007,0,.013,0,.02,0,.217-.01.384-.195.374-.412,0-.007-.026-.691.368-1.098.212-.22.511-.322.915-.318.012.001.022-.005.034-.005.035.002.068.011.104.012h.037c.687,0,1.335-.263,1.828-.743,1.037-1.008,1.06-2.673.051-3.71-.082-.084-.174-.151-.264-.222l5.148-7.709c.034-.013.067-.028.097-.051l10.351-7.967c.163-.126.202-.356.09-.528Zm-22.009,13.171c-.807.786-2.039.834-2.744.108-.706-.725-.623-1.954.184-2.74.425-.413.966-.623,1.487-.623.47,0,.923.17,1.257.515.093.096.17.203.237.316,0,0,0,0,0,.001,0,.001.001.002.002.003.174.295.259.642.238,1.01-.03.524-.265,1.025-.661,1.41Zm5.988,6.452c-.351.341-.808.522-1.305.52-.49-.007-.949-.204-1.291-.556-.342-.351-.527-.815-.52-1.305.007-.49.204-.948.556-1.29.356-.347.818-.519,1.28-.519.478,0,.957.185,1.316.554.706.726.69,1.89-.036,2.597Zm-.901-10.454l3.107-1.337-.786.85c-.064.07-.102.16-.104.255l-.017.554-2.2-.322Zm3-.061l1.941-2.099s0,0,0,0l5.484-5.931-2.19,3.28c-.038.038-.067.081-.086.129l-5.247,7.858.099-3.237Zm4.72-2.56l1.089-1.631,3.548-1.938-4.637,3.569Z"/>
      </g>
    </g>
  </g>
</svg>