<?xml version="1.0" encoding="UTF-8"?>
<svg id="Layer_2" data-name="Layer 2" xmlns="http://www.w3.org/2000/svg" width="52" height="63" xmlns:xlink="http://www.w3.org/1999/xlink" viewBox="0 0 52 63">
  <defs>
    <style>
      .cls-1 {
        clip-path: url(#clippath);
      }

      .cls-2 {
        fill: none;
      }
    </style>
    <clipPath id="clippath">
      <rect class="cls-2" width="52" height="63"/>
    </clipPath>
  </defs>
  <g id="Layer_1-2" data-name="Layer 1">
    <g class="cls-1">
      <path d="m37.816,33.764l1.126-1.13c.629-.632.628-1.658-.004-2.288-.633-.63-1.659-.627-2.288.004l-.848.851-.149-.148-.216-.216.699-.701c.345-.346.535-.806.533-1.294-.001-.488-.192-.947-.538-1.292-.714-.711-1.874-.709-2.586.005l-.699.701-.219-.218-.146-.146.847-.849c.305-.306.472-.713.471-1.145,0-.432-.17-.838-.476-1.143-.305-.304-.71-.472-1.142-.472h-.003c-.432,0-.838.17-1.143.476l-1.115,1.119s-.008.004-.011.008l-.224.225-.843-1.024c-.071-.086-.174-.138-.286-.143-.109-.005-.219.037-.297.115l-7.242,7.267c-.153.154-.153.403.001.557l.96.958-1.686,1.692c-.19.191-.294.454-.285.723.009.268.129.525.33.702l.762.675.875.875c-.057.158-.093.322-.117.487-.431-.188-.94-.146-1.343.145-.723.521-1.403,1.111-2.013,1.744-.463.449-.886.939-1.287,1.444l-3.163-3.156c-.9-.898-.902-2.361-.005-3.262l7.674-7.71c.074-.074.115-.174.115-.279,0-.104-.042-.205-.116-.278l-1.52-1.511c.57-.809.498-1.935-.224-2.658l-1.188-1.188c-.154-.154-.403-.154-.557,0l-.189.189-1.121-1.121c-.154-.154-.403-.154-.557,0s-.154.403,0,.557l1.121,1.121-.884.884-1.121-1.121c-.154-.154-.403-.154-.557,0-.154.154-.154.403,0,.557l1.121,1.121-.189.189c-.074.074-.115.174-.115.279s.042.205.115.279l1.188,1.188c.391.392.912.607,1.466.607.406,0,.792-.118,1.124-.334l1.251,1.244-7.396,7.431c-1.204,1.208-1.201,3.171.006,4.376l3.235,3.227c-.358.542-.291,1.256.173,1.718l2.171,2.163c.265.265.613.4.964.4.279,0,.558-.085.8-.26.723-.521,1.403-1.111,2.013-1.744.639-.62,1.226-1.302,1.746-2.028.29-.405.33-.918.137-1.349.163-.024.321-.064.474-.119.003.003.003.006.006.009l.874.874.672.759c.179.202.435.322.705.33.009,0,.019,0,.028,0,.259,0,.511-.104.694-.288l1.683-1.689.961.961c.077.077.177.115.279.115s.202-.038.279-.115l7.255-7.255c.08-.08.122-.191.114-.303-.007-.113-.062-.218-.152-.287l-1.056-.818.266-.267s0,0,0,0Zm-20.215-7.916l-.909-.909,1.818-1.818.909.909c.501.501.501,1.317,0,1.818-.485.485-1.333.486-1.818,0Zm19.608,5.058c.323-.324.85-.326,1.174-.002.324.323.325.85.002,1.174l-.848.851-1.176-1.171.848-.851Zm-11.622,9.688c-.329.33-.766.512-1.232.512-.012,0-.024-.003-.035-.003.826-1.147,1.025-2.231,1.035-2.287.022-.127-.019-.256-.11-.347-.091-.091-.221-.131-.347-.109-.056.01-1.143.215-2.282,1.041-.009-.465.164-.926.503-1.267l.89-.893s.003-.002.004-.003l1.336-1.342,2.468,2.459-2.231,2.239Zm-3.17.011c.682-.684,1.439-1.066,1.963-1.267-.201.526-.583,1.289-1.274,1.982l-1.329,1.481c-.243.291-.481.446-.687.449-.218.018-.383-.174-.384-.174-.015-.019-.033-.036-.052-.052-.002-.002-.174-.158-.175-.377-.002-.264.242-.524.457-.705l1.48-1.339Zm1.329-7.418l6.444-6.466,1.45,1.444s.003.006.006.009c.003.003.006.003.009.006l.139.138-3.222,3.233-3.222,3.233-.445-.444-1.158-1.154Zm8.605-4.312l2.468,2.459-3.222,3.233-3.222,3.233-2.468-2.459,3.222-3.233,3.222-3.233Zm-1.814,11.078l-1.603-1.597,4.264-4.278,2.18-2.188,1.603,1.597-6.444,6.466Zm3.567-11.841c.405-.407,1.065-.408,1.472-.003.197.196.306.457.306.735,0,.278-.107.54-.304.737l-.699.702-1.475-1.469.699-.701Zm-2.509-2.796c.156-.157.365-.244.586-.244h.002c.221,0,.429.086.586.242.157.156.244.365.245.587,0,.222-.086.43-.242.587l-.847.849-1.176-1.172.847-.849Zm-9.742,7.287l6.658-6.68.616.748-6.208,6.229s-.008.004-.011.007l-.374.375-.682-.68Zm-1.059,3.627c-.001-.031.005-.091.056-.142l2.338-2.346,1.147,1.142.457.455-1.135,1.139-1.058-.538c-.151-.077-.336-.048-.457.073l-.789.791-.493-.437c-.054-.048-.064-.107-.065-.137Zm1.132,1.115l.571-.572.576.293-.511.513c-.068.068-.127.142-.185.215l-.449-.449Zm2.029,5.402c-.493.688-1.049,1.334-1.663,1.93-.586.609-1.23,1.167-1.915,1.661-.23.167-.545.142-.747-.06l-2.171-2.162c-.202-.201-.228-.515-.062-.747.49-.686,1.047-1.332,1.663-1.93.586-.609,1.23-1.167,1.915-1.661.232-.167.546-.141.747.059l.175.174c-.008.008-.016.014-.024.022l-1.455,1.315c-.485.407-.729.845-.727,1.302.002.521.329.861.433.957.096.104.437.43.958.43h0c.456,0,.893-.246,1.29-.722l1.305-1.455c.013-.013.024-.026.036-.038l.179.178c.202.201.228.515.063.747Zm2.419-.954l-.457-.457c.077-.061.157-.117.227-.187l.486-.488.273.601-.529.53Zm1.255,1.073c-.05.051-.109.056-.142.056-.031,0-.09-.011-.138-.065l-.434-.491.739-.74c.115-.116.147-.292.08-.441l-.508-1.12,1.15-1.155,1.603,1.597-.381.382s-.005.003-.007.005c-.002.002-.003.005-.005.007l-1.956,1.963Zm10.14-7.668l-6.66,6.66-.683-.683.379-.38s.008-.004.011-.008l6.172-6.193.781.605Z"/>
    </g>
  </g>
</svg>