<svg width="33" height="29" viewBox="0 0 33 29" fill="none" xmlns="http://www.w3.org/2000/svg">
<g clip-path="url(#clip0_11177_1538)">
<path d="M27.3913 29H21.0274C20.8544 29 20.6885 28.9389 20.5662 28.8301C20.4439 28.7214 20.3752 28.5738 20.3752 28.42L20.3941 18.4713C20.3941 18.3174 20.4628 18.1699 20.5851 18.0611C20.7074 17.9524 20.8733 17.8913 21.0463 17.8913H24.913L25.3741 14.6583L21.0306 14.6247C20.8577 14.6247 20.6918 14.5636 20.5695 14.4548C20.4472 14.3461 20.3785 14.1985 20.3785 14.0447V11.3622C20.3785 10.2353 20.6889 8.73654 23.372 8.73654H25.1876L25.2215 6.003L22.228 5.97284C18.8315 5.97284 16.8039 7.83232 16.8039 10.9469V14.0453C16.8039 14.1991 16.7352 14.3466 16.6129 14.4554C16.4906 14.5642 16.3247 14.6253 16.1517 14.6253H13.2476L13.228 17.8623L16.168 17.8918C16.341 17.8918 16.5069 17.9529 16.6292 18.0617C16.7515 18.1705 16.8202 18.318 16.8202 18.4718L16.8006 28.42C16.8006 28.5738 16.7319 28.7214 16.6096 28.8301C16.4873 28.9389 16.3214 29 16.1485 29H5.21739C3.83413 28.9986 2.50797 28.5093 1.52985 27.6394C0.55174 26.7696 0.00155355 25.5902 0 24.36L0 4.64C0.00155355 3.40982 0.55174 2.23042 1.52985 1.36055C2.50797 0.490681 3.83413 0.00138162 5.21739 0L27.3913 0C28.7746 0.00138162 30.1007 0.490681 31.0788 1.36055C32.0569 2.23042 32.6071 3.40982 32.6087 4.64V24.36C32.6071 25.5902 32.0569 26.7696 31.0788 27.6394C30.1007 28.5093 28.7746 28.9986 27.3913 29ZM21.6809 27.84H27.3913C28.4287 27.8389 29.4233 27.4719 30.1569 26.8195C30.8905 26.1671 31.3031 25.2826 31.3043 24.36V4.64C31.3031 3.71738 30.8905 2.83285 30.1569 2.18046C29.4233 1.52806 28.4287 1.16107 27.3913 1.16H5.21739C4.1799 1.16092 3.18521 1.52786 2.4516 2.18029C1.71798 2.83271 1.30538 3.71733 1.30435 4.64V24.36C1.30556 25.2826 1.71821 26.1671 2.45179 26.8195C3.18536 27.4719 4.17996 27.8389 5.21739 27.84H15.4976L15.5146 19.0513H13.2613C12.9072 19.0506 12.5678 18.9254 12.3171 18.703C12.0665 18.4805 11.9251 18.1789 11.9237 17.864L11.91 14.6572C11.9091 14.5005 11.9431 14.3452 12.01 14.2003C12.0768 14.0553 12.1752 13.9235 12.2995 13.8125C12.4238 13.7014 12.5716 13.6134 12.7343 13.5533C12.897 13.4932 13.0714 13.4623 13.2476 13.4624H15.4963V10.9463C15.4963 7.163 18.0743 4.814 22.2248 4.814H25.185C25.5397 4.81446 25.8797 4.94002 26.1305 5.16313C26.3812 5.38625 26.5223 5.6887 26.5226 6.00416V8.70812C26.5221 9.02337 26.3811 9.32559 26.1305 9.54857C25.8799 9.77154 25.5401 9.89709 25.1856 9.8977H23.3693C21.9143 9.8977 21.6796 10.3304 21.6796 11.3634V13.4659H25.3376C25.5266 13.4658 25.7135 13.5014 25.8859 13.5703C26.0583 13.6392 26.2123 13.7397 26.3378 13.8654C26.4633 13.991 26.5575 14.1389 26.6141 14.2993C26.6707 14.4597 26.6884 14.6289 26.6661 14.7958L26.2389 18.0026C26.2001 18.2919 26.0434 18.5585 25.7985 18.752C25.5536 18.9455 25.2374 19.0523 24.9098 19.0524H21.6978L21.6809 27.84Z" fill="black"/>
</g>
<defs>
<clipPath id="clip0_11177_1538">
<rect width="32.6087" height="29" fill="white"/>
</clipPath>
</defs>
</svg>
