<?xml version="1.0" encoding="UTF-8"?>
<svg id="Layer_2" data-name="Layer 2" xmlns="http://www.w3.org/2000/svg" width="52" height="63" xmlns:xlink="http://www.w3.org/1999/xlink" viewBox="0 0 52 63">
  <defs>
    <style>
      .cls-1 {
        clip-path: url(#clippath);
      }

      .cls-2 {
        fill: none;
      }
    </style>
    <clipPath id="clippath">
      <rect class="cls-2" width="52" height="63"/>
    </clipPath>
  </defs>
  <g id="Layer_1-2" data-name="Layer 1">
    <g class="cls-1">
      <g>
        <path d="m33.863,35.229l.949-.548c.199-.122.359-.276.477-.458.751-1.163-.192-2.723-.232-2.788-.018-.029-.373-.591-.94-1.011.005-.014.015-.026.02-.04.461-1.306-.817-2.604-.872-2.659-.054-.054-1.352-1.332-2.658-.872-.204.072-.391.192-.556.358l-.656.656-7.118-6.327c-.185-.165-.471-.148-.636.038s-.149.471.038.636l7.078,6.292-8.085,8.085-5.799-5.155c-.185-.165-.471-.148-.636.038-.166.186-.149.471.038.636l5.76,5.12-.19.19c-.048.048-.085.107-.107.171l-.408,1.178-4.276,4.276c-.176.176-.176.461,0,.637s.461.176.637,0l4.031-4.031,1.62,1.62-4.03,4.031c-.176.176-.176.461,0,.637.088.088.203.132.319.132s.231-.044.319-.132l4.276-4.276,1.178-.408c.065-.023.123-.059.171-.107l10.004-10.004c.423.31.71.76.713.765.007.011.682,1.147.243,1.827-.043.067-.11.129-.181.173l-.702.405-.231-.993c-.056-.242-.299-.393-.541-.337-.243.056-.393.299-.337.541l2.482,10.661c.048.208.234.349.439.349.034,0,.068-.004.102-.012.243-.056.393-.299.337-.541l-2.037-8.75Zm-10.855,5.207l-.912.315-1.858-1.858.315-.911,10.134-10.134c.068-.068.143-.118.218-.145.638-.227,1.459.4,1.72.659.26.262.886,1.084.66,1.722-.015.042-.038.083-.067.124-.048.036-.089.081-.12.137l-10.092,10.092Z"/>
        <path d="m20.322,34.003c.086.076.192.114.299.114.124,0,.248-.051.337-.151.165-.186.149-.471-.038-.636l-4.265-3.791c-.185-.165-.471-.148-.636.038-.165.186-.149.471.038.636l4.265,3.791Z"/>
        <path d="m26.215,42.078c-.063-.24-.309-.386-.55-.321-.241.063-.384.31-.321.55l.783,2.975c.053.202.236.336.435.336.038,0,.077-.005.115-.015.241-.063.384-.31.321-.55l-.783-2.975Z"/>
        <path d="m24.021,42.924c-.063-.24-.309-.386-.55-.321-.241.063-.384.31-.321.55l.994,3.777c.053.202.236.336.435.336.038,0,.077-.005.115-.015.241-.063.384-.31.321-.55l-.994-3.777Z"/>
        <path d="m28.819,24.498c0,.249.202.451.451.451s.451-.202.451-.451c0-.336.084-.477.212-.69.152-.253.341-.568.341-1.154s-.189-.901-.341-1.154c-.128-.213-.212-.354-.212-.69s.084-.477.212-.69c.152-.253.341-.568.341-1.154,0-.249-.202-.451-.451-.451s-.451.202-.451.451c0,.336-.085.477-.212.69-.152.253-.341.568-.341,1.154s.189.901.341,1.154c.128.213.212.354.212.69s-.085.477-.212.69c-.152.253-.341.568-.341,1.154Z"/>
        <path d="m32.464,25.492c0,.249.202.451.451.451s.451-.202.451-.451c0-.502.138-.731.312-1.022.196-.327.44-.734.44-1.485s-.244-1.158-.44-1.485c-.174-.29-.312-.52-.312-1.022s.138-.731.312-1.022c.196-.327.44-.734.44-1.485,0-.249-.202-.451-.451-.451s-.451.202-.451.451c0,.502-.138.731-.312,1.022-.196.327-.44.734-.44,1.485s.244,1.158.44,1.485c.174.29.312.52.312,1.022s-.138.731-.312,1.021c-.196.327-.44.734-.44,1.485Z"/>
        <path d="m37.422,20.869c-.183-.305-.327-.546-.327-1.074,0-.24.03-.436.093-.616.083-.235-.04-.492-.274-.575-.235-.083-.492.04-.575.274-.097.276-.145.575-.145.917,0,.778.242,1.182.456,1.538.183.305.328.546.328,1.075s-.145.769-.328,1.074c-.214.356-.456.76-.456,1.538,0,.249.202.451.451.451s.451-.202.451-.451c0-.528.145-.769.327-1.074.214-.356.456-.76.456-1.538s-.242-1.182-.456-1.538Z"/>
      </g>
    </g>
  </g>
</svg>