<svg xmlns="http://www.w3.org/2000/svg" width="41.14502" height="49.50002" viewBox="0 0 41.14502 49.50002"><g id="a602f383-871b-4120-9380-305d58fcfa56" data-name="Layer 2"><g id="aabf3a37-7fae-480b-a3d3-a59c9a93529e" data-name="Layer 1"><path d="M36.74561,13.08594l-10.11915-.00037V10.34668A4.78344,4.78344,0,0,0,21.72412,5.7041H14.13477a4.78345,4.78345,0,0,0-4.90235,4.64258V13.085H1a1.00026,1.00026,0,0,0-1,1L.00049,48.5a.99924.99924,0,0,0,1.32226.94629L5.1792,48.13477l3.376,1.29882A1.00516,1.00516,0,0,0,8.91406,49.5H36.74561a.99974.99974,0,0,0,1-1V14.08594A.99974.99974,0,0,0,36.74561,13.08594ZM11.23242,10.34668A2.7847,2.7847,0,0,1,14.13477,7.7041h7.58935a2.78469,2.78469,0,0,1,2.90234,2.64258v2.73883l-13.394-.00049ZM4.87793,46.125l-2.87744.97852L2,15.085H7.91406V47.04364l-2.355-.90594A1.00149,1.00149,0,0,0,4.87793,46.125ZM35.74561,47.5H9.91406V15.085l25.83155.001Z"/><path d="M19.63281,29.91211h6.64258a4.42032,4.42032,0,0,0,4.41553-4.415V21.99121a1,1,0,0,0-2,0v3.50586a2.41772,2.41772,0,0,1-2.41553,2.415H19.63281a2.41813,2.41813,0,0,1-2.416-2.415V21.99121a1,1,0,0,0-2,0v3.50586A4.42042,4.42042,0,0,0,19.63281,29.91211Z"/><path d="M31.978,9.66309a.49972.49972,0,0,0,.5-.5V7.3125a.5.5,0,1,0-1,0V9.16309A.49972.49972,0,0,0,31.978,9.66309Z"/><path d="M31.978,2.85156a.49972.49972,0,0,0,.5-.5V.5a.5.5,0,1,0-1,0V2.35156A.49971.49971,0,0,0,31.978,2.85156Z"/><path d="M27.64648,5.332h1.85059a.5.5,0,0,0,0-1H27.64648a.5.5,0,0,0,0,1Z"/><path d="M34.459,5.332h1.85059a.5.5,0,0,0,0-1H34.459a.5.5,0,0,0,0,1Z"/><path d="M40.645,9.25488H39.21924V7.82812a.5.5,0,1,0-1,0V9.25488H38.103a.12259.12259,0,0,1-.09473,0H36.793a.5.5,0,0,0,0,1H38.0083a.12259.12259,0,0,1,.09473,0h.11621v1.42578a.5.5,0,1,0,1,0V10.25488H40.645a.5.5,0,0,0,0-1Z"/></g></g></svg>