<svg width="17" height="17" viewBox="0 0 17 17" fill="none" xmlns="http://www.w3.org/2000/svg">
<path d="M12.418 1.04116C12.3693 0.988961 12.3107 0.947096 12.2455 0.91806C12.1803 0.889024 12.11 0.873412 12.0387 0.872153C11.9673 0.870894 11.8965 0.884016 11.8303 0.910735C11.7642 0.937454 11.7041 0.977223 11.6536 1.02767C11.6032 1.07812 11.5634 1.13821 11.5367 1.20436C11.51 1.27051 11.4969 1.34136 11.4981 1.41269C11.4994 1.48402 11.515 1.55437 11.544 1.61954C11.5731 1.6847 11.6149 1.74335 11.6671 1.79199L13.0625 3.18741L11.6671 4.58282C11.6149 4.63146 11.5731 4.69011 11.544 4.75527C11.515 4.82044 11.4994 4.89079 11.4981 4.96212C11.4969 5.03345 11.51 5.1043 11.5367 5.17045C11.5634 5.2366 11.6032 5.29669 11.6536 5.34714C11.7041 5.39759 11.7642 5.43736 11.8303 5.46408C11.8965 5.49079 11.9673 5.50392 12.0387 5.50266C12.11 5.5014 12.1803 5.48579 12.2455 5.45675C12.3107 5.42771 12.3693 5.38585 12.418 5.33365L13.8134 3.93824L15.2088 5.33365C15.3095 5.42749 15.4427 5.47858 15.5803 5.47615C15.718 5.47373 15.8493 5.41797 15.9466 5.32064C16.0439 5.2233 16.0997 5.09199 16.1021 4.95436C16.1046 4.81673 16.0535 4.68353 15.9596 4.58282L14.5642 3.18741L15.9596 1.79199C16.0535 1.69128 16.1046 1.55808 16.1021 1.42045C16.0997 1.28282 16.0439 1.15151 15.9466 1.05417C15.8493 0.956839 15.718 0.901085 15.5803 0.898656C15.4427 0.896228 15.3095 0.947315 15.2088 1.04116L13.8134 2.43657L12.418 1.04116Z" fill="black"/>
<path d="M8.45897 0.885742C6.82343 0.885742 5.54206 0.885742 4.54189 1.02033C3.51906 1.15774 2.71156 1.44533 2.0776 2.07858C1.44364 2.71253 1.15677 3.52003 1.01935 4.54358C0.884766 5.54303 0.884766 6.82441 0.884766 8.45995V8.5407C0.884766 10.1762 0.884766 11.4576 1.01935 12.4578C1.15677 13.4806 1.44435 14.2881 2.0776 14.9221C2.71156 15.556 3.51906 15.8429 4.5426 15.9803C5.54206 16.1149 6.82343 16.1149 8.45897 16.1149H8.53972C10.1753 16.1149 11.4566 16.1149 12.4568 15.9803C13.4796 15.8429 14.2871 15.5553 14.9211 14.9221C15.5551 14.2881 15.8419 13.4806 15.9793 12.4571C16.1139 11.4576 16.1139 10.1762 16.1139 8.5407V7.43783C16.1139 7.29693 16.058 7.1618 15.9583 7.06218C15.8587 6.96255 15.7236 6.90658 15.5827 6.90658C15.4418 6.90658 15.3067 6.96255 15.207 7.06218C15.1074 7.1618 15.0514 7.29693 15.0514 7.43783V8.50033C15.0514 10.1847 15.05 11.3953 14.9268 12.3154C14.8049 13.2214 14.5726 13.7675 14.1696 14.1712C13.7658 14.5743 13.2204 14.8059 12.3144 14.9277C11.3936 15.051 10.1838 15.0524 8.49935 15.0524C6.81493 15.0524 5.6051 15.051 4.68427 14.9277C3.77831 14.8059 3.23218 14.5736 2.82843 14.1705C2.42539 13.7668 2.19377 13.2214 2.07193 12.3154C1.94868 11.3946 1.94727 10.1847 1.94727 8.50033C1.94727 6.81591 1.94868 5.60608 2.07193 4.68524C2.19377 3.77928 2.4261 3.23316 2.82914 2.82941C3.23289 2.42637 3.77831 2.19474 4.68427 2.07291C5.6051 1.94966 6.81493 1.94824 8.49935 1.94824H9.56185C9.70275 1.94824 9.83787 1.89227 9.9375 1.79264C10.0371 1.69301 10.0931 1.55789 10.0931 1.41699C10.0931 1.2761 10.0371 1.14097 9.9375 1.04134C9.83787 0.941713 9.70275 0.885742 9.56185 0.885742H8.45897Z" fill="black"/>
</svg>
