<svg width="33" height="29" viewBox="0 0 33 29" fill="none" xmlns="http://www.w3.org/2000/svg">
<g clip-path="url(#clip0_11177_1542)">
<path d="M27.3913 29H5.21739C3.83413 28.9986 2.50797 28.5093 1.52985 27.6394C0.55174 26.7696 0.00155355 25.5902 0 24.36L0 4.64C0.00155355 3.40982 0.55174 2.23042 1.52985 1.36055C2.50797 0.490681 3.83413 0.00138162 5.21739 0L27.3913 0C28.7746 0.00138162 30.1007 0.490681 31.0788 1.36055C32.0569 2.23042 32.6071 3.40982 32.6087 4.64V24.36C32.6071 25.5902 32.0569 26.7696 31.0788 27.6394C30.1007 28.5093 28.7746 28.9986 27.3913 29ZM5.21739 1.16C4.1799 1.16092 3.18521 1.52786 2.4516 2.18029C1.71798 2.83271 1.30538 3.71733 1.30435 4.64V24.36C1.30538 25.2827 1.71798 26.1673 2.4516 26.8197C3.18521 27.4721 4.1799 27.8391 5.21739 27.84H27.3913C28.4288 27.8391 29.4235 27.4721 30.1571 26.8197C30.8907 26.1673 31.3033 25.2827 31.3043 24.36V4.64C31.3033 3.71733 30.8907 2.83271 30.1571 2.18029C29.4235 1.52786 28.4288 1.16092 27.3913 1.16H5.21739Z" fill="black"/>
<path d="M16.3045 21.4197C14.7659 21.4196 13.2618 21.0137 11.9825 20.2534C10.7032 19.493 9.70614 18.4124 9.11741 17.1482C8.52867 15.8839 8.3747 14.4928 8.67496 13.1507C8.97522 11.8086 9.71622 10.5759 10.8043 9.6083C11.8923 8.64075 13.2785 7.98185 14.7877 7.71494C16.2968 7.44802 17.861 7.58507 19.2825 8.10875C20.7041 8.63244 21.919 9.51924 22.7739 10.657C23.6287 11.7948 24.085 13.1325 24.085 14.5009C24.0827 16.3353 23.2622 18.0941 21.8036 19.3912C20.345 20.6883 18.3673 21.4178 16.3045 21.4197ZM16.3045 8.74203C15.0238 8.74215 13.7719 9.08 12.7071 9.71285C11.6423 10.3457 10.8125 11.2452 10.3225 12.2975C9.83246 13.3497 9.70432 14.5076 9.95424 15.6247C10.2042 16.7418 10.821 17.7678 11.7266 18.5732C12.6322 19.3785 13.786 19.9269 15.0421 20.1491C16.2982 20.3712 17.6002 20.2571 18.7834 19.8213C19.9666 19.3854 20.9778 18.6472 21.6893 17.7002C22.4008 16.7532 22.7806 15.6398 22.7806 14.5009C22.7787 12.9739 22.0958 11.5101 20.8817 10.4304C19.6676 9.35078 18.0214 8.74357 16.3045 8.74203Z" fill="black"/>
<path d="M25.7394 8.58352C25.2082 8.58352 24.6889 8.44344 24.2473 8.181C23.8056 7.91855 23.4614 7.54553 23.2581 7.1091C23.0549 6.67267 23.0017 6.19243 23.1053 5.72912C23.2089 5.26581 23.4647 4.84023 23.8403 4.5062C24.2159 4.17217 24.6945 3.94469 25.2154 3.85253C25.7364 3.76038 26.2764 3.80768 26.7671 3.98845C27.2579 4.16923 27.6773 4.47536 27.9724 4.86814C28.2675 5.26091 28.425 5.72269 28.425 6.19508C28.4243 6.82835 28.1412 7.4355 27.6376 7.88329C27.1341 8.33107 26.4514 8.58291 25.7394 8.58352ZM25.7394 4.96722C25.4661 4.96722 25.1991 5.03928 24.9719 5.17429C24.7447 5.3093 24.5677 5.50119 24.4631 5.72569C24.3586 5.95019 24.3313 6.19722 24.3846 6.43553C24.438 6.67384 24.5696 6.89273 24.7629 7.0645C24.9561 7.23628 25.2023 7.35323 25.4703 7.40057C25.7383 7.4479 26.016 7.42349 26.2684 7.33043C26.5208 7.23736 26.7365 7.07982 26.8882 6.87772C27.0399 6.67563 27.1208 6.43807 27.1207 6.19508C27.1207 5.86917 26.9752 5.55659 26.7162 5.32603C26.4572 5.09547 26.1058 4.96579 25.7394 4.96548V4.96722Z" fill="black"/>
</g>
<defs>
<clipPath id="clip0_11177_1542">
<rect width="32.6087" height="29" fill="white"/>
</clipPath>
</defs>
</svg>
