<?xml version="1.0" encoding="UTF-8"?>
<svg id="Layer_2" data-name="Layer 2" xmlns="http://www.w3.org/2000/svg" width="52" height="63" xmlns:xlink="http://www.w3.org/1999/xlink" viewBox="0 0 52 63">
  <defs>
    <style>
      .cls-1 {
        clip-path: url(#clippath);
      }

      .cls-2 {
        fill: none;
      }
    </style>
    <clipPath id="clippath">
      <rect class="cls-2" width="52" height="63"/>
    </clipPath>
  </defs>
  <g id="Layer_1-2" data-name="Layer 1">
    <g class="cls-1">
      <g>
        <path d="m38.661,40.923c-5.253-.743-5.521-4.366-5.831-8.562-.13-1.753-.266-3.564-.801-5.202l1.092-1.376c.072-.091.101-.21.077-.324-.023-.114-.096-.212-.198-.267-.161-.087-.686-.257-1.764.334-1.638-2.964-4.962-4.355-10.427-4.355-.053,0-.107,0-.16,0-.217.001-.393.178-.392.396.001.217.177.392.394.392h.002c5.258-.014,8.419,1.247,9.915,3.987-.604.424-1.336,1.048-2.215,1.959-1.272-2.534-3.716-3.899-7.664-4.28-.219-.021-.409.138-.43.354-.021.216.138.409.354.43,3.788.365,6.064,1.67,7.165,4.109,0,0,0,0,0,0-.589.646-1.236,1.41-1.947,2.315-.85-2.27-2.466-3.689-5.073-4.423-.209-.06-.427.063-.486.272-.059.209.063.427.272.486,2.485.7,3.976,2.07,4.691,4.311.009.027.024.05.038.074-.017.023-.034.044-.052.067-.639.841-1.26,1.443-1.759,1.927-.182.177-.343.336-.49.489l-.636-.051c-.065-.006-.135.007-.196.035-.015.007-1.485.675-2.73.774-.012,0-.025,0-.038.001-.009,0-.019,0-.028,0-.074,0-.144.001-.207.006-.014,0-.027.001-.041.001-.008-.001-.019,0-.03,0-.243-.006-.443-.043-.607-.103.377-.398.6-.887.592-1.415-.02-1.289-1.4-2.31-3.061-2.293h0c-1.668.026-3.01,1.095-2.99,2.385.019,1.274,1.36,2.293,3.001,2.293.02,0,.04,0,.06,0,.642-.01,1.235-.176,1.721-.448.318.23.736.357,1.235.366.016.002.036.003.056.003.009,0,.018,0,.027,0,.006,0,.012,0,.017,0,.002,0,.004,0,.006,0,.009,0,.018,0,.027-.002.073,0,.146-.002.219-.006.014,0,.027,0,.042,0,.994.003,1.697.431,2.089.756-.04.576-.256,1.502-1.147,2.281-.005.004-.006.01-.01.014-.377.395-.637.841-.666,1.321-.557.141-1.101.433-1.565.859-1.228,1.129-1.518,2.82-.645,3.77.387.421.938.626,1.54.626.755,0,1.587-.324,2.271-.952,1.229-1.129,1.518-2.82.645-3.77-.36-.392-.866-.598-1.446-.619.054-.231.215-.469.442-.702.02-.018.037-.038.057-.056.658-.645,1.807-1.247,2.632-1.564.063-.024.118-.064.161-.116l.416-.5c.543.018,1.222.036,2.061.055.265,3.495.686,7.352,6.041,8.113.019.003.037.004.056.004.193,0,.362-.142.39-.339.031-.215-.119-.415-.335-.445-4.399-.625-5.037-3.299-5.358-7.313.165.004.334.007.508.009.127.002.254.003.381.003.477,0,.951-.02,1.42-.052.409,3.003,1.501,5.802,6.068,6.448.019.003.037.004.056.004.193,0,.362-.142.39-.339.031-.215-.12-.415-.335-.445-3.977-.562-5.052-2.846-5.442-6.101-.085-.7-.138-1.412-.194-2.166-.097-1.301-.199-2.645-.476-3.916l2.018-2.542c.382,1.419.499,2.987.611,4.509.308,4.156.626,8.452,6.507,9.284.019.003.037.004.056.004.193,0,.362-.142.39-.339.031-.215-.12-.415-.335-.445Zm-14.651-6.808c.518-.502,1.163-1.128,1.838-2.016,3.233-4.255,5.11-5.605,6.038-6.027l-6.478,8.161s0,.001-.001.002l-1.403-.113s.004-.004.006-.006Zm-7.961.769c-1.25.016-2.249-.662-2.262-1.517-.013-.855.98-1.566,2.214-1.585,1.253-.01,2.249.662,2.262,1.517.013.855-.98,1.566-2.214,1.585Zm6.18,1.957c.135.011.409.03.896.052-.23.095-.608.262-1.036.49.062-.19.109-.373.14-.542Zm-.887,4.182c.579.63.31,1.821-.598,2.657-.908.835-2.118,1.003-2.698.373-.579-.63-.31-1.821.598-2.657.456-.419,1-.681,1.531-.739.071-.008.14-.011.207-.011.397,0,.732.131.959.377Zm6.216-4.795c-.368-.004-.713-.013-1.035-.022-1.063-.022-1.882-.044-2.51-.066-.948-.032-1.442-.063-1.662-.079-.046-.05-.106-.11-.178-.177-.209-.195-.537-.452-.974-.668.546-.172.986-.354,1.173-.436l6.803.548c.024.288.052.571.082.855-.56.037-1.127.057-1.699.046Zm1.547-1.802c.003.035.006.071.008.106l-2.761-.222,2.415-3.042c.175,1.03.26,2.107.338,3.158Z"/>
        <path d="m29.983,46.386c-4.069-.576-4.65-3.209-4.921-6.09-.02-.217-.213-.376-.429-.355-.216.02-.376.212-.355.429.277,2.945.961,6.141,5.595,6.797.019.003.037.004.056.004.193,0,.362-.142.39-.339.031-.215-.12-.415-.335-.445Z"/>
      </g>
    </g>
  </g>
</svg>