<svg width="29" height="29" viewBox="0 0 29 29" fill="none" xmlns="http://www.w3.org/2000/svg">
<path d="M6.41383 18.9618H8.08617C8.00883 18.53 7.81872 18.1627 7.51583 17.8598C7.21294 17.5569 6.84561 17.3668 6.41383 17.2895V18.9618ZM10.7034 18.9618H11.7583C11.7583 17.4764 11.2371 16.2145 10.1947 15.1761C9.15232 14.1369 7.89163 13.6174 6.41263 13.6174V14.6722C7.60163 14.6722 8.61381 15.0903 9.44917 15.9265C10.2845 16.7627 10.7026 17.7744 10.7034 18.9618ZM14.3743 18.9618H15.4292C15.4292 17.7261 15.1944 16.558 14.7248 15.4577C14.2551 14.3589 13.6119 13.4003 12.795 12.5818C11.9782 11.7634 11.0204 11.1201 9.92163 10.6521C8.82285 10.1841 7.65358 9.94926 6.41383 9.94765V11.0025C8.62428 11.0025 10.5036 11.7775 12.0519 13.3274C13.6002 14.8772 14.3743 16.7546 14.3743 18.9618ZM10.875 24.1673V21.7507H3.625V4.83398H25.375V21.7507H18.125V24.1673H10.875ZM4.83333 20.5423H24.1667V6.04232H4.83333V20.5423Z" fill="black"/>
</svg>
