<?xml version="1.0" encoding="UTF-8"?>
<svg id="Layer_2" data-name="Layer 2" xmlns="http://www.w3.org/2000/svg" width="48" height="38.4" viewBox="0 0 48 38.4">
  <g id="Layer_1-2" data-name="Layer 1">
    <g>
      <path d="m47.04,1.92H.96c-.531,0-.96-.429-.96-.96s.429-.96.96-.96h46.08c.531,0,.96.429.96.96s-.429.96-.96.96Z"/>
      <path d="m47.04,20.16h-29.912c-.531,0-.96-.429-.96-.96s.429-.96.96-.96h29.912c.531,0,.96.429.96.96s-.429.96-.96.96Z"/>
      <path d="m47.04,38.4H.96c-.531,0-.96-.429-.96-.96s.429-.96.96-.96h46.08c.531,0,.96.429.96.96s-.429.96-.96.96Z"/>
    </g>
  </g>
</svg>