<svg width="48" height="48" viewBox="0 0 48 48" fill="none" xmlns="http://www.w3.org/2000/svg">
<g clip-path="url(#clip0_11424_1369)">
<path d="M42.27 48.0038H0.727C0.325 48.0038 0 47.6778 0 47.2768V5.73481C0 5.33281 0.326 5.00781 0.727 5.00781H24C24.402 5.00781 24.727 5.33381 24.727 5.73481C24.727 6.13581 24.401 6.46181 24 6.46181H1.455V46.5488H41.543V24.0038C41.543 23.6018 41.869 23.2768 42.27 23.2768C42.671 23.2768 42.997 23.6028 42.997 24.0038V47.2768C42.997 47.6788 42.671 48.0038 42.27 48.0038Z" fill="black" stroke="black" stroke-width="0.3" stroke-linejoin="round"/>
<path d="M30.895 17.833C30.708 17.833 30.523 17.762 30.381 17.62C30.097 17.336 30.097 16.876 30.381 16.592L46.759 0.213C47.043 -0.071 47.503 -0.071 47.787 0.213C48.071 0.497 48.071 0.957 47.787 1.241L31.409 17.619C31.267 17.761 31.081 17.833 30.895 17.833Z" fill="black" stroke="black" stroke-width="0.3" stroke-linejoin="round"/>
<path d="M47.273 17.833C47.086 17.833 46.901 17.762 46.759 17.62L30.381 1.241C30.097 0.957 30.097 0.497 30.381 0.213C30.665 -0.071 31.125 -0.071 31.409 0.213L47.787 16.591C48.071 16.875 48.071 17.335 47.787 17.619C47.645 17.761 47.459 17.833 47.273 17.833Z" fill="black" stroke="black" stroke-width="0.3" stroke-linejoin="round"/>
</g>
<defs>
<clipPath id="clip0_11424_1369">
<rect width="48" height="48" fill="white"/>
</clipPath>
</defs>
</svg>
