<?xml version="1.0" encoding="UTF-8"?>
<svg id="Layer_2" data-name="Layer 2" xmlns="http://www.w3.org/2000/svg" width="52" height="63" xmlns:xlink="http://www.w3.org/1999/xlink" viewBox="0 0 52 63">
  <defs>
    <style>
      .cls-1 {
        clip-path: url(#clippath);
      }

      .cls-2 {
        fill: none;
      }
    </style>
    <clipPath id="clippath">
      <rect class="cls-2" width="52" height="63"/>
    </clipPath>
  </defs>
  <g id="Layer_1-2" data-name="Layer 1">
    <g class="cls-1">
      <path d="m35.257,22.625c-.072-.437-.309-.82-.668-1.077-.739-.531-1.774-.364-2.308.372l-5.507,7.575-9.938,10.035c-.097.098-.136.24-.102.374l1.791,7.036c.045.175.202.297.382.297.007,0,.014,0,.021,0,.188-.01.342-.151.369-.338l.806-5.648,1.356,5.327c.045.175.202.296.382.296.007,0,.014,0,.021,0,.188-.01.342-.151.369-.338l.882-6.173,11.855-16.505c.258-.36.361-.798.289-1.234Zm-12.841,17.358c-.037.051-.061.111-.07.174l-.614,4.3-1.067-4.191,5.559-5.584-3.808,5.301Zm11.912-16.584l-5.223,7.272-9.581,9.625c-.06.061-.099.139-.111.222l-.614,4.3-1.246-4.893,9.803-9.898c.007-.007.01-.017.016-.025.007-.008.016-.012.022-.021l5.525-7.6c.28-.387.824-.476,1.211-.196.389.279.478.823.198,1.212Z"/>
    </g>
  </g>
</svg>