<?xml version="1.0" encoding="UTF-8"?>
<svg id="Layer_2" data-name="Layer 2" xmlns="http://www.w3.org/2000/svg" width="48" height="48" viewBox="0 0 48 48">
  <g id="Layer_1-2" data-name="Layer 1">
    <g>
      <path d="m21.421,42.842c-5.488,0-10.976-2.089-15.154-6.267C-2.089,28.219-2.089,14.623,6.267,6.267c8.356-8.355,21.952-8.356,30.308,0,8.356,8.356,8.356,21.952,0,30.308-4.178,4.178-9.666,6.267-15.154,6.267Zm0-40.922c-4.997,0-9.993,1.902-13.796,5.705C.018,15.232.018,27.61,7.625,35.217c7.608,7.607,19.985,7.608,27.592,0s7.607-19.985,0-27.592c-3.804-3.803-8.8-5.705-13.796-5.705Z"/>
      <path d="m47.039,48c-.246,0-.491-.094-.679-.281l-11.145-11.145c-.375-.375-.375-.983,0-1.358s.983-.375,1.358,0l11.145,11.145c.375.375.375.983,0,1.358-.188.188-.433.281-.679.281Z"/>
    </g>
  </g>
</svg>