<?xml version="1.0" encoding="UTF-8"?>
<svg id="Layer_2" data-name="Layer 2" xmlns="http://www.w3.org/2000/svg" width="52" height="63" xmlns:xlink="http://www.w3.org/1999/xlink" viewBox="0 0 52 63">
  <defs>
    <style>
      .cls-1 {
        clip-path: url(#clippath);
      }

      .cls-2 {
        fill: none;
      }
    </style>
    <clipPath id="clippath">
      <rect class="cls-2" width="52" height="63"/>
    </clipPath>
  </defs>
  <g id="Layer_1-2" data-name="Layer 1">
    <g class="cls-1">
      <g>
        <path d="m16.037,47.268c-.217,0-.394-.176-.394-.394v-25.212c0-.217.176-.394.394-.394s.394.176.394.394v25.212c0,.217-.176.394-.394.394Z"/>
        <path d="m22.425,47.268c-.034,0-.068-.004-.102-.013-.21-.056-.335-.273-.278-.483.246-.918.59-1.634.922-2.326.618-1.29,1.202-2.508,1.202-5.004s-.585-3.719-1.204-5.008c-.63-1.312-1.281-2.668-1.281-5.344s.65-4.03,1.28-5.34c.331-.69.644-1.342.872-2.189.056-.21.272-.335.483-.279.21.056.335.273.278.483-.246.918-.59,1.634-.923,2.326-.618,1.287-1.202,2.503-1.202,4.999s.584,3.714,1.203,5.003c.63,1.313,1.281,2.67,1.281,5.349s-.651,4.033-1.28,5.345c-.331.69-.644,1.343-.871,2.19-.047.176-.206.292-.38.292Z"/>
        <path d="m30.501,47.268c-.062,0-.125-.014-.184-.046-.192-.102-.266-.34-.164-.532l.093-.175c.404-.757.786-1.472.786-2.934s-.377-2.171-.777-2.925c-.426-.806-.867-1.639-.867-3.288s.441-2.483.868-3.288c.399-.752.776-1.463.776-2.915s-.377-2.166-.776-2.92c-.427-.805-.868-1.638-.868-3.288s.441-2.486.868-3.294l.096-.182c.101-.193.339-.267.532-.167.193.101.267.339.167.531l-.098.186c-.4.756-.777,1.47-.777,2.925s.377,2.166.776,2.92c.427.805.868,1.638.868,3.288s-.441,2.479-.867,3.283c-.399.754-.777,1.465-.777,2.92s.377,2.166.776,2.92c.427.807.868,1.641.868,3.294s-.447,2.496-.878,3.305l-.092.172c-.071.133-.207.21-.349.21Z"/>
        <path d="m38.35,47.268c-.063,0-.127-.015-.187-.047-.191-.104-.263-.343-.159-.534.214-.397.31-.809.31-1.336,0-.982-.343-1.446-.741-1.984-.421-.569-.898-1.215-.898-2.454s.476-1.882.897-2.451c.398-.539.742-1.004.742-1.982s-.344-1.447-.741-1.985c-.421-.568-.897-1.213-.897-2.449s.476-1.882.897-2.451c.398-.539.742-1.004.742-1.982,0-.983-.344-1.448-.741-1.985-.421-.568-.897-1.213-.897-2.449,0-.654.127-1.195.399-1.703.103-.192.342-.265.533-.162.192.103.264.341.162.533-.208.39-.305.813-.305,1.332,0,.976.344,1.441.743,1.98.42.567.896,1.21.896,2.443,0,1.249-.476,1.893-.897,2.462-.398.539-.742,1.004-.742,1.982s.344,1.441.743,1.98c.42.567.896,1.211.896,2.443,0,1.249-.476,1.893-.897,2.462-.398.539-.742,1.004-.742,1.982s.345,1.446.744,1.986c.42.567.895,1.211.895,2.442,0,.666-.128,1.21-.405,1.721-.071.132-.207.207-.347.207Z"/>
      </g>
    </g>
  </g>
</svg>