<svg width="28" height="28" viewBox="0 0 28 28" fill="none" xmlns="http://www.w3.org/2000/svg">
<path d="M24.5 8.09375C23.0501 8.09201 21.6601 7.51529 20.6349 6.49007C19.6097 5.46486 19.033 4.07487 19.0312 2.625C19.0312 2.45095 18.9621 2.28403 18.839 2.16096C18.716 2.03789 18.549 1.96875 18.375 1.96875H14C13.826 1.96875 13.659 2.03789 13.536 2.16096C13.4129 2.28403 13.3438 2.45095 13.3438 2.625V17.0625C13.3435 17.493 13.2277 17.9156 13.0085 18.2862C12.7893 18.6568 12.4746 18.9617 12.0974 19.1693C11.7202 19.3768 11.2942 19.4793 10.8638 19.4661C10.4335 19.453 10.0146 19.3246 9.65075 19.0943C9.28694 18.8641 8.99156 18.5405 8.79543 18.1572C8.59929 17.7739 8.50959 17.345 8.53567 16.9153C8.56175 16.4855 8.70266 16.0706 8.94371 15.7139C9.18475 15.3571 9.5171 15.0716 9.90609 14.887C10.0183 14.8338 10.1131 14.7499 10.1795 14.645C10.2459 14.54 10.2812 14.4184 10.2812 14.2942V9.625C10.2812 9.52962 10.2603 9.43541 10.22 9.34892C10.1798 9.26244 10.1212 9.18576 10.0484 9.12423C9.97548 9.0627 9.89006 9.0178 9.79806 8.99264C9.70605 8.96749 9.60967 8.9627 9.51562 8.97859C5.70938 9.65562 2.84375 13.1305 2.84375 17.0625C2.84375 19.2091 3.69648 21.2678 5.21435 22.7856C6.73223 24.3035 8.7909 25.1562 10.9375 25.1562C13.0841 25.1562 15.1428 24.3035 16.6606 22.7856C18.1785 21.2678 19.0312 19.2091 19.0312 17.0625V12.3517C20.6999 13.293 22.5841 13.7856 24.5 13.7812C24.674 13.7812 24.841 13.7121 24.964 13.589C25.0871 13.466 25.1562 13.299 25.1562 13.125V8.75C25.1562 8.57595 25.0871 8.40903 24.964 8.28596C24.841 8.16289 24.674 8.09375 24.5 8.09375ZM23.8438 12.4469C22.0103 12.3298 20.2472 11.697 18.7578 10.6214C18.6596 10.5509 18.5439 10.5089 18.4233 10.5C18.3028 10.4911 18.1821 10.5156 18.0747 10.5709C17.9672 10.6263 17.8771 10.7102 17.8143 10.8135C17.7515 10.9168 17.7184 11.0354 17.7188 11.1562V17.0625C17.7188 18.861 17.0043 20.5858 15.7326 21.8576C14.4608 23.1293 12.736 23.8438 10.9375 23.8438C9.139 23.8438 7.41416 23.1293 6.14243 21.8576C4.8707 20.5858 4.15625 18.861 4.15625 17.0625C4.15625 14.0306 6.17641 11.3225 8.96875 10.4584V13.907C8.41957 14.2497 7.96936 14.7299 7.66265 15.2999C7.35593 15.87 7.20335 16.5103 7.21998 17.1574C7.23661 17.8045 7.42187 18.4361 7.75746 18.9897C8.09304 19.5433 8.56731 19.9996 9.13337 20.3137C9.69943 20.6277 10.3377 20.7886 10.985 20.7803C11.6323 20.7721 12.2662 20.595 12.824 20.2666C13.3819 19.9382 13.8444 19.4699 14.1657 18.9079C14.4871 18.3459 14.6561 17.7098 14.6562 17.0625V3.28125H17.7505C17.9044 4.84502 18.5958 6.30703 19.7069 7.41812C20.818 8.52921 22.28 9.22063 23.8438 9.37453V12.4469Z" fill="black"/>
</svg>
