<svg width="24" height="29" viewBox="0 0 24 29" fill="none" xmlns="http://www.w3.org/2000/svg">
<path d="M19.195 19.9533C18.409 19.9533 17.638 19.4423 17.532 19.3683C17.268 19.1863 17.202 18.8253 17.384 18.5613C17.565 18.2983 17.927 18.2313 18.19 18.4123C18.511 18.6303 19.104 18.8823 19.34 18.7673C19.81 18.5393 21.541 16.6033 21.888 15.0953C21.952 14.8183 21.698 14.5823 21.473 14.4343C20.85 14.0223 20.039 13.9763 19.855 14.1113C19.594 14.3003 19.232 14.2413 19.045 13.9823C18.857 13.7233 18.915 13.3603 19.174 13.1723C19.911 12.6393 21.274 12.9113 22.114 13.4673C22.853 13.9563 23.182 14.6453 23.019 15.3563C22.617 17.1033 20.758 19.3693 19.848 19.8113C19.64 19.9123 19.418 19.9533 19.197 19.9533H19.195Z" fill="#1A1A1A"/>
<path d="M18.7071 17.8216H18.6711C18.3511 17.8006 18.1081 17.5256 18.1281 17.2056L18.1521 16.8116C18.1501 16.7386 18.1491 16.5876 18.2091 16.4216C18.2891 16.2026 18.4421 16.0576 18.5151 15.9886C18.8861 15.6396 19.3191 15.3656 19.8031 15.1726C20.0981 15.0536 20.4381 15.1976 20.5571 15.4956C20.6761 15.7926 20.5311 16.1306 20.2341 16.2496C19.8901 16.3876 19.5711 16.5886 19.3121 16.8326L19.2871 17.2766C19.2681 17.5846 19.0131 17.8206 18.7091 17.8206L18.7071 17.8216Z" fill="#1A1A1A"/>
<path d="M6.06533 29.0008C5.81433 29.0008 5.58333 28.8378 5.50933 28.5848C5.41833 28.2778 5.59433 27.9548 5.90133 27.8638C5.95333 27.8488 11.0563 26.3238 12.8863 24.3848C13.5913 23.1718 14.1683 21.8478 14.5293 20.9448C14.6493 20.6468 14.9863 20.5028 15.2843 20.6218C15.5823 20.7408 15.7263 21.0788 15.6073 21.3768C15.2253 22.3298 14.6113 23.7368 13.8553 25.0268C13.8353 25.0618 13.8103 25.0948 13.7823 25.1248C11.7713 27.3228 6.45433 28.9108 6.22933 28.9768C6.17433 28.9928 6.11933 29.0008 6.06533 29.0008Z" fill="#1A1A1A"/>
<path d="M5.59688 28.995C4.90488 28.995 4.32088 28.942 3.89588 28.828C3.72888 28.775 0.402883 27.635 0.413883 20.406C0.340883 19.771 -0.134117 15.528 0.0368829 14.362L0.145883 13.607C0.292883 12.581 0.459883 11.419 0.663883 10.275C1.02688 8.238 2.03288 6.004 3.42288 4.147C5.38888 1.523 8.46288 0.011 11.8579 0H11.9039C17.3029 0 21.0799 3.196 22.3089 6.174C23.1149 8.129 23.5099 11.77 22.7749 14.477C22.6909 14.786 22.3689 14.972 22.0629 14.885C21.7539 14.801 21.5709 14.482 21.6549 14.173C22.3169 11.736 21.9529 8.353 21.2359 6.616C20.1509 3.984 16.7689 1.16 11.9049 1.16H11.8619C8.83388 1.17 6.09688 2.512 4.35188 4.844C3.06588 6.561 2.13888 8.614 1.80588 10.48C1.60588 11.604 1.44088 12.756 1.29488 13.772L1.18488 14.531C1.05588 15.413 1.41988 19 1.56988 20.308C1.57288 20.331 1.57388 20.353 1.57388 20.376C1.55488 26.693 4.20388 27.709 4.23088 27.718C6.50188 28.324 14.8159 26.755 17.2339 24.953C17.6029 24.678 17.7379 24.46 17.7399 24.357C17.7959 22.38 18.6209 20.25 19.1089 19.156C19.2389 18.864 19.5809 18.731 19.8749 18.863C20.1669 18.993 20.2989 19.336 20.1679 19.629C19.8039 20.447 18.9509 22.547 18.8999 24.39C18.8849 24.911 18.5579 25.413 17.9269 25.883C15.6429 27.585 9.17488 28.995 5.59688 28.995Z" fill="#1A1A1A"/>
<path d="M22 9.5V8.5L21.5541 7.60829L21.5 7.5L15 8.5L14 8L8 7L3 6.5L2 8L2.5 8.5L9.5 9.5H12.5L13 11L13.5 15H15.5V13.5L15 11.5L15.5 10.5L16.5 10L22 9.5Z" fill="#EBE533"/>
<path d="M14.2168 8.78506H14.1688C13.8488 8.78406 13.5888 8.52406 13.5908 8.20306C13.5918 7.88306 13.8518 7.62506 14.1708 7.62506C14.1818 7.61606 14.2018 7.62506 14.2168 7.62506C15.8188 7.62506 17.5218 7.38506 19.1708 7.15306C20.1698 7.01206 21.1138 6.87906 22.0438 6.79406C22.3708 6.76106 22.6448 7.00006 22.6748 7.31906C22.7038 7.63806 22.4688 7.92006 22.1498 7.95006C21.2478 8.03206 20.3178 8.16406 19.3328 8.30206C17.6448 8.54006 15.8998 8.78606 14.2168 8.78606V8.78506Z" fill="#1A1A1A"/>
<path d="M15.5185 10.9564C15.1985 10.9564 14.9385 10.6974 14.9385 10.3774C14.9385 10.0574 15.1965 9.79642 15.5175 9.79642C17.0005 9.79342 18.7315 9.54842 20.2585 9.33342C21.0665 9.21942 21.8295 9.11042 22.4285 9.06042C22.7555 9.03542 23.0295 9.27042 23.0555 9.58942C23.0825 9.90942 22.8455 10.1894 22.5265 10.2164C21.9585 10.2644 21.2115 10.3704 20.4195 10.4824C18.8555 10.7044 17.0825 10.9534 15.5185 10.9564Z" fill="#1A1A1A"/>
<path d="M13.3432 16.1041C13.2162 16.1041 13.0902 16.0621 12.9882 15.9831C12.8592 15.8831 12.7782 15.7331 12.7652 15.5711L12.7372 15.2101C12.6722 14.3821 12.5242 12.4821 12.4132 11.2911C12.3612 10.7281 11.9102 10.2881 11.3422 10.2451C6.22216 9.85511 1.67316 9.17811 1.62816 9.17111C1.31116 9.12311 1.09316 8.82811 1.14016 8.51111C1.18716 8.19411 1.47916 7.98111 1.80016 8.02311C1.84516 8.03011 6.35416 8.70211 11.4302 9.08811C12.5642 9.17511 13.4632 10.0561 13.5692 11.1841C13.6692 12.2621 13.8002 13.9191 13.8732 14.8441L15.1512 14.6201C15.0872 13.7281 14.9612 12.1201 14.8462 10.6961C14.7262 9.20311 13.5532 8.04511 12.0572 7.94411C6.89716 7.59311 2.66916 6.88811 2.62716 6.88111C2.31116 6.82811 2.09816 6.52911 2.15116 6.21211C2.20416 5.89611 2.49716 5.68511 2.82016 5.73611C2.86116 5.74311 7.03616 6.43911 12.1362 6.78511C14.2102 6.92611 15.8362 8.53111 16.0032 10.6021C16.1362 12.2541 16.3052 14.4141 16.3442 15.0661C16.3622 15.3601 16.1552 15.6211 15.8652 15.6721L13.4442 16.0961C13.4112 16.1021 13.3762 16.1041 13.3432 16.1041Z" fill="#1A1A1A"/>
<path d="M13.1881 14.1441C12.9141 14.1441 12.6701 13.9491 12.6181 13.6701C12.5601 13.3551 12.7681 13.0521 13.0831 12.9941L15.5001 12.5451C15.8141 12.4861 16.1181 12.6951 16.1761 13.0101C16.2341 13.3251 16.0261 13.6281 15.7111 13.6861L13.2941 14.1351C13.2581 14.1421 13.2231 14.1451 13.1871 14.1451L13.1881 14.1441Z" fill="#1A1A1A"/>
</svg>
