<svg width="29" height="27" viewBox="0 0 29 27" fill="none" xmlns="http://www.w3.org/2000/svg">
<g clip-path="url(#clip0_8608_748)">
<path d="M14.501 25.9956C14.369 25.9956 14.236 25.9516 14.127 25.8646C13.6519 25.4836 2.47495 16.4686 0.79695 11.1146C-0.12305 8.66461 0.13095 5.64861 1.45795 3.46361C2.55895 1.64861 4.27495 0.551608 6.42095 0.290608C10.653 -0.222392 13.424 2.48561 14.501 3.80361C15.579 2.48561 18.343 -0.223392 22.582 0.290608C24.728 0.551608 26.444 1.64861 27.545 3.46361C28.871 5.64961 29.1259 8.66461 28.194 11.1456C26.527 16.4686 15.349 25.4826 14.874 25.8636C14.7649 25.9516 14.633 25.9946 14.5 25.9946L14.501 25.9956Z" fill="#EA1C24"/>
<path d="M14.501 26.2212C14.366 26.2212 14.232 26.1772 14.121 26.0872C13.638 25.6992 2.26405 16.5272 0.557046 11.0792C-0.379954 8.58616 -0.120954 5.51816 1.22905 3.29415C2.34905 1.44715 4.09605 0.331155 6.27905 0.065155C10.585 -0.456845 13.405 2.29816 14.501 3.64016C15.598 2.29916 18.41 -0.457845 22.724 0.065155C24.908 0.330155 26.654 1.44715 27.774 3.29315C29.123 5.51715 29.382 8.58615 28.435 11.1102C26.738 16.5262 15.365 25.6992 14.882 26.0862C14.771 26.1752 14.637 26.2202 14.502 26.2202L14.501 26.2212ZM7.33505 1.21616C7.04105 1.21616 6.73805 1.23416 6.42605 1.27216C4.62605 1.49116 3.18805 2.40815 2.26805 3.92415C1.12305 5.81215 0.897046 8.52816 1.70605 10.6842C3.14805 15.2812 12.491 23.1712 14.502 24.8292C16.513 23.1712 25.855 15.2832 27.287 10.7162C28.107 8.52915 27.881 5.81316 26.736 3.92415C26.094 2.86616 24.852 1.54816 22.578 1.27216C17.801 0.690155 15.043 4.94215 15.015 4.98516C14.904 5.16116 14.71 5.26716 14.502 5.26716C14.294 5.26716 14.1 5.16116 13.989 4.98516C13.885 4.82215 11.528 1.21616 7.33505 1.21616Z" fill="#1A1A1A"/>
</g>
<defs>
<clipPath id="clip0_8608_748">
<rect width="29" height="26.221" fill="white"/>
</clipPath>
</defs>
</svg>
