<svg width="19" height="21" viewBox="0 0 19 21" fill="none" xmlns="http://www.w3.org/2000/svg">
<path d="M10.3953 4.15034L15.5309 10.0566C15.6364 10.182 15.6954 10.3497 15.6954 10.5242C15.6954 10.6986 15.6364 10.8663 15.5309 10.9917L10.3953 16.898C10.2845 17.0026 10.1437 17.0561 10.0004 17.048C9.85718 17.0399 9.72167 16.9709 9.62025 16.8542C9.51883 16.7376 9.45876 16.5817 9.45172 16.417C9.44468 16.2522 9.49119 16.0903 9.58218 15.9628L13.7477 11.1804H2.57063C2.41929 11.1804 2.27415 11.1113 2.16713 10.9882C2.06012 10.8651 2 10.6982 2 10.5242C2 10.3501 2.06012 10.1832 2.16713 10.0601C2.27415 9.93705 2.41929 9.86791 2.57063 9.86791H13.7477L9.58218 5.08549C9.49119 4.95799 9.44468 4.79611 9.45172 4.63136C9.45876 4.46661 9.51883 4.31075 9.62025 4.19411C9.72167 4.07748 9.85718 4.00839 10.0004 4.0003C10.1437 3.99221 10.2845 4.04569 10.3953 4.15034Z" fill="black"/>
</svg>
