<svg width="21" height="19" viewBox="0 0 21 19" fill="none" xmlns="http://www.w3.org/2000/svg">
<path d="M15.8985 10.3953L9.99224 15.5309C9.86681 15.6364 9.69915 15.6954 9.52466 15.6954C9.35018 15.6954 9.18252 15.6364 9.05709 15.5309L3.15084 10.3953C3.04619 10.2845 2.99271 10.1437 3.0008 10.0004C3.00889 9.85718 3.07798 9.72167 3.19461 9.62025C3.31125 9.51883 3.46711 9.45876 3.63186 9.45172C3.79661 9.44468 3.95849 9.49119 4.08599 9.58218L8.86841 13.7477V2.57063C8.86841 2.41929 8.93755 2.27415 9.06063 2.16713C9.1837 2.06012 9.35062 2 9.52466 2C9.69871 2 9.86563 2.06012 9.9887 2.16713C10.1118 2.27415 10.1809 2.41929 10.1809 2.57063V13.7477L14.9633 9.58218C15.0908 9.49119 15.2527 9.44468 15.4175 9.45172C15.5822 9.45876 15.7381 9.51883 15.8547 9.62025C15.9714 9.72167 16.0404 9.85718 16.0485 10.0004C16.0566 10.1437 16.0031 10.2845 15.8985 10.3953Z" fill="black"/>
</svg>
