<svg width="137" height="29" viewBox="0 0 137 29" fill="none" xmlns="http://www.w3.org/2000/svg">
<g clip-path="url(#clip0_8608_724)">
<path d="M63.191 29.0003C59.8027 28.9998 56.4749 28.0463 53.5458 26.2369C53.3406 26.112 53.1795 25.9193 53.0871 25.6881C52.9947 25.4569 52.9761 25.1999 53.034 24.9564C53.0945 24.713 53.2291 24.4977 53.4168 24.3441C53.6045 24.1904 53.8348 24.1071 54.0717 24.107H54.8566C56.8169 24.11 58.7482 23.6036 60.4821 22.6321C59.4276 22.2226 58.4745 21.5639 57.6947 20.7059C56.9149 19.8478 56.3288 18.8128 55.9806 17.679C55.9319 17.5207 55.9232 17.3516 55.9554 17.1887C55.9876 17.0258 56.0596 16.8747 56.1641 16.7506C56.2186 16.6857 56.2809 16.6286 56.3492 16.5806C55.5028 15.8376 54.8238 14.9025 54.362 13.8442C53.9003 12.7859 53.6674 11.6312 53.6807 10.4648C53.6824 10.3291 53.7112 10.1954 53.7652 10.0724C53.8191 9.94947 53.897 9.84005 53.9936 9.75139C54.0903 9.66274 54.2036 9.59686 54.326 9.55811C54.4483 9.51937 54.5771 9.50863 54.7037 9.5266C54.0633 8.33686 53.7285 6.98929 53.7326 5.61883C53.7367 4.24836 54.0797 2.9031 54.7271 1.71773C54.8005 1.58409 54.9033 1.47133 55.0267 1.38909C55.15 1.30685 55.2903 1.25758 55.4355 1.24549C55.5807 1.2334 55.7265 1.25886 55.8604 1.31968C55.9944 1.38049 56.1124 1.47487 56.2045 1.59472C59.0638 5.35316 63.2033 7.76164 67.7242 8.29716C67.6769 7.4684 67.7459 6.63677 67.929 5.82958C68.2174 4.55592 68.8119 3.38349 69.6543 2.42678C70.4967 1.47007 71.5582 0.761784 72.7352 0.371089C73.9568 -0.0422773 75.2578 -0.115306 76.5135 0.159006C77.7692 0.433317 78.9375 1.04577 79.9064 1.93762C79.9457 1.97476 79.9927 2.00153 80.0435 2.01575C80.0944 2.02996 80.1477 2.03122 80.1991 2.01943C81.3163 1.71971 82.387 1.25074 83.3783 0.626956C83.5355 0.527912 83.7173 0.48196 83.8996 0.495193C84.0819 0.508427 84.2561 0.580221 84.3991 0.701053C84.5421 0.821886 84.6472 0.986047 84.7003 1.17176C84.7535 1.35748 84.7522 1.55598 84.6968 1.74093C84.5156 2.34207 84.266 2.91744 83.9534 3.45426C84.0834 3.39914 84.2118 3.34112 84.3396 3.2802C84.5181 3.19617 84.7175 3.17598 84.9078 3.22268C85.0981 3.26938 85.2689 3.38043 85.3947 3.53915C85.5204 3.69786 85.5943 3.89566 85.6051 4.10279C85.616 4.30993 85.5633 4.5152 85.4548 4.68776C84.6775 5.92391 83.7297 7.02896 82.6432 7.96587C82.5716 8.02635 82.5137 8.10317 82.4738 8.19065C82.4339 8.27813 82.413 8.37402 82.4127 8.47122V8.58146C82.398 11.0382 81.9727 13.4726 81.1565 15.7713C80.3148 18.1801 79.0646 20.4046 77.4678 22.3345C75.7924 24.3669 73.7351 26.0044 71.4283 27.1414C68.8433 28.3928 66.0316 29.0274 63.191 29.0003ZM54.0701 25.2674C56.8509 26.9457 59.9928 27.8319 63.191 27.84C65.8728 27.8665 68.5275 27.2686 70.9684 26.0883C73.138 25.019 75.0729 23.479 76.6485 21.5674C78.1576 19.7432 79.3394 17.6407 80.1352 15.364C80.9052 13.1953 81.3065 10.8986 81.3204 8.58088V8.47122C81.3203 8.20126 81.3773 7.93473 81.487 7.69124C81.5968 7.44774 81.7565 7.23349 81.9545 7.06424C82.7864 6.34729 83.5305 5.52262 84.1697 4.60943C83.6301 4.82946 83.0772 5.01108 82.5148 5.15307C82.3977 5.18324 82.2745 5.17139 82.1644 5.11939C82.0542 5.06739 81.9634 4.97816 81.906 4.86558C81.8486 4.75301 81.8278 4.62343 81.847 4.49702C81.8661 4.37062 81.9241 4.25449 82.0118 4.16674C82.6455 3.52699 83.1458 2.75318 83.4805 1.89527C82.5288 2.44178 81.5171 2.86079 80.4684 3.14269C80.2446 3.19987 80.0111 3.1992 79.7876 3.14075C79.5641 3.0823 79.357 2.96776 79.1838 2.80676C78.3561 2.0454 77.3579 1.52319 76.2853 1.29039C75.2126 1.05759 74.1016 1.12203 73.0591 1.47752C72.0631 1.80799 71.1648 2.40722 70.4519 3.21668C69.739 4.02615 69.236 5.01818 68.9918 6.09589C68.8082 6.89992 68.7576 7.73174 68.8422 8.55419C68.8544 8.67196 68.8432 8.79115 68.8092 8.90401C68.7753 9.01686 68.7193 9.12086 68.645 9.20923C68.5605 9.30739 68.4558 9.38364 68.3392 9.43212C68.2225 9.4806 68.097 9.50002 67.9722 9.48889C63.1262 9.02175 58.6534 6.52881 55.5376 2.55843C54.9162 3.81937 54.6923 5.25892 54.8988 6.6652C55.1052 8.07147 55.7312 9.3702 56.6846 10.3702C56.7696 10.459 56.825 10.575 56.8421 10.7004C56.8593 10.8258 56.8373 10.9537 56.7796 11.0646C56.7219 11.1755 56.6317 11.2633 56.5226 11.3145C56.4135 11.3658 56.2916 11.3777 56.1756 11.3484C55.691 11.2267 55.2208 11.0472 54.7741 10.8135C54.818 12.0422 55.1819 13.2338 55.8255 14.2558C56.469 15.2778 57.3669 16.09 58.4192 16.6021C58.5319 16.6566 58.6238 16.75 58.6799 16.8672C58.736 16.9844 58.7529 17.1184 58.728 17.2471C58.703 17.3759 58.6377 17.4919 58.5426 17.576C58.4475 17.6602 58.3283 17.7075 58.2046 17.7103H58.0473C57.7377 17.7102 57.4286 17.6869 57.1221 17.6407C57.5149 18.7288 58.1682 19.6893 59.0174 20.4271C59.8667 21.1649 60.8824 21.6546 61.9644 21.8477C62.0726 21.8661 62.1731 21.9187 62.2528 21.9986C62.3325 22.0786 62.3877 22.1821 62.4113 22.2958C62.4348 22.4095 62.4256 22.5281 62.3849 22.6362C62.3442 22.7443 62.2737 22.8369 62.1828 22.9019C60.0172 24.4482 57.466 25.2719 54.8566 25.2674H54.0701Z" fill="black"/>
</g>
<g clip-path="url(#clip1_8608_724)">
<path d="M131.391 29H125.027C124.854 29 124.689 28.9389 124.566 28.8301C124.444 28.7213 124.375 28.5738 124.375 28.42L124.394 18.4713C124.394 18.3174 124.463 18.1699 124.585 18.0611C124.707 17.9524 124.873 17.8913 125.046 17.8913H128.913L129.374 14.6583L125.031 14.6247C124.858 14.6247 124.692 14.5636 124.569 14.4548C124.447 14.3461 124.378 14.1985 124.378 14.0447V11.3622C124.378 10.2353 124.689 8.73654 127.372 8.73654H129.188L129.222 6.003L126.228 5.97284C122.832 5.97284 120.804 7.83232 120.804 10.9469V14.0453C120.804 14.1991 120.735 14.3466 120.613 14.4554C120.491 14.5642 120.325 14.6253 120.152 14.6253H117.248L117.228 17.8623L120.168 17.8918C120.341 17.8918 120.507 17.9529 120.629 18.0617C120.752 18.1705 120.82 18.318 120.82 18.4718L120.801 28.42C120.801 28.5738 120.732 28.7213 120.61 28.8301C120.487 28.9389 120.321 29 120.148 29H109.217C107.834 28.9986 106.508 28.5093 105.53 27.6395C104.552 26.7696 104.002 25.5902 104 24.36V4.64C104.002 3.40982 104.552 2.23042 105.53 1.36055C106.508 0.490681 107.834 0.00138162 109.217 0L131.391 0C132.775 0.00138162 134.101 0.490681 135.079 1.36055C136.057 2.23042 136.607 3.40982 136.609 4.64V24.36C136.607 25.5902 136.057 26.7696 135.079 27.6395C134.101 28.5093 132.775 28.9986 131.391 29ZM125.681 27.84H131.391C132.429 27.8389 133.423 27.4719 134.157 26.8195C134.89 26.1671 135.303 25.2826 135.304 24.36V4.64C135.303 3.71738 134.89 2.83285 134.157 2.18045C133.423 1.52806 132.429 1.16107 131.391 1.16H109.217C108.18 1.16092 107.185 1.52786 106.452 2.18029C105.718 2.83271 105.305 3.71733 105.304 4.64V24.36C105.306 25.2826 105.718 26.1671 106.452 26.8195C107.185 27.4719 108.18 27.8389 109.217 27.84H119.498L119.515 19.0513H117.261C116.907 19.0506 116.568 18.9254 116.317 18.703C116.067 18.4805 115.925 18.1789 115.924 17.864L115.91 14.6572C115.909 14.5005 115.943 14.3452 116.01 14.2003C116.077 14.0553 116.175 13.9235 116.299 13.8125C116.424 13.7014 116.572 13.6134 116.734 13.5533C116.897 13.4932 117.071 13.4623 117.248 13.4624H119.496V10.9463C119.496 7.163 122.074 4.814 126.225 4.814H129.185C129.54 4.81446 129.88 4.94002 130.13 5.16313C130.381 5.38625 130.522 5.6887 130.523 6.00416V8.70812C130.522 9.02337 130.381 9.32559 130.13 9.54857C129.88 9.77154 129.54 9.89709 129.186 9.8977H127.369C125.914 9.8977 125.68 10.3304 125.68 11.3634V13.4659H129.338C129.527 13.4658 129.713 13.5014 129.886 13.5703C130.058 13.6392 130.212 13.7397 130.338 13.8654C130.463 13.991 130.557 14.1389 130.614 14.2993C130.671 14.4597 130.688 14.6289 130.666 14.7958L130.239 18.0026C130.2 18.2919 130.043 18.5585 129.799 18.752C129.554 18.9454 129.237 19.0523 128.91 19.0524H125.698L125.681 27.84Z" fill="black"/>
</g>
<g clip-path="url(#clip2_8608_724)">
<path d="M27.3913 29H5.21739C3.83413 28.9986 2.50797 28.5093 1.52985 27.6395C0.55174 26.7696 0.00155355 25.5902 0 24.36L0 4.64C0.00155355 3.40982 0.55174 2.23042 1.52985 1.36055C2.50797 0.490681 3.83413 0.00138162 5.21739 0L27.3913 0C28.7746 0.00138162 30.1007 0.490681 31.0788 1.36055C32.0569 2.23042 32.6071 3.40982 32.6087 4.64V24.36C32.6071 25.5902 32.0569 26.7696 31.0788 27.6395C30.1007 28.5093 28.7746 28.9986 27.3913 29ZM5.21739 1.16C4.1799 1.16092 3.18521 1.52786 2.4516 2.18029C1.71798 2.83271 1.30538 3.71733 1.30435 4.64V24.36C1.30538 25.2827 1.71798 26.1673 2.4516 26.8197C3.18521 27.4721 4.1799 27.8391 5.21739 27.84H27.3913C28.4288 27.8391 29.4235 27.4721 30.1571 26.8197C30.8907 26.1673 31.3033 25.2827 31.3043 24.36V4.64C31.3033 3.71733 30.8907 2.83271 30.1571 2.18029C29.4235 1.52786 28.4288 1.16092 27.3913 1.16H5.21739Z" fill="black"/>
<path d="M16.3045 21.4197C14.7659 21.4196 13.2618 21.0137 11.9825 20.2534C10.7032 19.493 9.70614 18.4124 9.11741 17.1482C8.52867 15.8839 8.3747 14.4928 8.67496 13.1507C8.97522 11.8086 9.71622 10.5759 10.8043 9.6083C11.8923 8.64075 13.2785 7.98185 14.7877 7.71494C16.2968 7.44802 17.861 7.58507 19.2825 8.10875C20.7041 8.63244 21.919 9.51924 22.7739 10.657C23.6287 11.7948 24.085 13.1325 24.085 14.5009C24.0827 16.3353 23.2622 18.0941 21.8036 19.3912C20.345 20.6883 18.3673 21.4178 16.3045 21.4197ZM16.3045 8.74203C15.0238 8.74215 13.7719 9.08 12.7071 9.71285C11.6423 10.3457 10.8125 11.2452 10.3225 12.2975C9.83246 13.3497 9.70432 14.5076 9.95424 15.6247C10.2042 16.7418 10.821 17.7678 11.7266 18.5732C12.6322 19.3785 13.786 19.9269 15.0421 20.1491C16.2982 20.3712 17.6002 20.2571 18.7834 19.8213C19.9666 19.3854 20.9778 18.6472 21.6893 17.7002C22.4008 16.7532 22.7806 15.6398 22.7806 14.5009C22.7787 12.9739 22.0958 11.5101 20.8817 10.4304C19.6676 9.35078 18.0214 8.74357 16.3045 8.74203Z" fill="black"/>
<path d="M25.7394 8.58352C25.2082 8.58352 24.6889 8.44344 24.2473 8.181C23.8056 7.91855 23.4614 7.54553 23.2581 7.1091C23.0549 6.67267 23.0017 6.19243 23.1053 5.72912C23.2089 5.26581 23.4647 4.84023 23.8403 4.5062C24.2159 4.17217 24.6945 3.94469 25.2154 3.85253C25.7364 3.76038 26.2764 3.80768 26.7671 3.98845C27.2579 4.16923 27.6773 4.47536 27.9724 4.86814C28.2675 5.26091 28.425 5.72269 28.425 6.19508C28.4243 6.82835 28.1412 7.4355 27.6376 7.88329C27.1341 8.33107 26.4514 8.58291 25.7394 8.58352ZM25.7394 4.96722C25.4661 4.96722 25.1991 5.03928 24.9719 5.17429C24.7447 5.3093 24.5677 5.50119 24.4631 5.72569C24.3586 5.95019 24.3313 6.19722 24.3846 6.43553C24.438 6.67384 24.5696 6.89273 24.7629 7.0645C24.9561 7.23628 25.2023 7.35323 25.4703 7.40057C25.7383 7.4479 26.016 7.42349 26.2684 7.33043C26.5208 7.23736 26.7365 7.07982 26.8882 6.87772C27.0399 6.67563 27.1208 6.43807 27.1207 6.19508C27.1207 5.86917 26.9752 5.55659 26.7162 5.32603C26.4572 5.09547 26.1058 4.96579 25.7394 4.96548V4.96722Z" fill="black"/>
</g>
<defs>
<clipPath id="clip0_8608_724">
<rect width="32.6087" height="29" fill="white" transform="translate(53)"/>
</clipPath>
<clipPath id="clip1_8608_724">
<rect width="32.6087" height="29" fill="white" transform="translate(104)"/>
</clipPath>
<clipPath id="clip2_8608_724">
<rect width="32.6087" height="29" fill="white"/>
</clipPath>
</defs>
</svg>
