<svg width="88" height="14" viewBox="0 0 88 14" fill="none" xmlns="http://www.w3.org/2000/svg">
<path d="M26.3223 1.92188L27.8389 5.29395L31.7539 5.61426L32.7441 5.69531L31.9736 6.32324L29.0293 8.72266L29.9053 12.2822L30.127 13.1836L29.3193 12.7256L25.957 10.8193L22.5957 12.7256L21.7881 13.1836L22.0107 12.2822L22.8857 8.72266L19.9414 6.32324L19.1709 5.69531L20.1621 5.61426L24.0762 5.29395L25.5928 1.92188L25.958 1.11035L26.3223 1.92188Z" fill="white" stroke="black" stroke-width="0.8"/>
<path d="M8.28027 1.92188L9.79688 5.29395L13.7119 5.61426L14.7021 5.69531L13.9316 6.32324L10.9873 8.72266L11.8633 12.2822L12.085 13.1836L11.2773 12.7256L7.91504 10.8193L4.55371 12.7256L3.74609 13.1836L3.96875 12.2822L4.84375 8.72266L1.89941 6.32324L1.12891 5.69531L2.12012 5.61426L6.03418 5.29395L7.55078 1.92188L7.91602 1.11035L8.28027 1.92188Z" fill="white" stroke="black" stroke-width="0.8"/>
<path d="M44.3643 1.92188L45.8809 5.29395L49.7959 5.61426L50.7861 5.69531L50.0156 6.32324L47.0713 8.72266L47.9473 12.2822L48.1689 13.1836L47.3613 12.7256L43.999 10.8193L40.6377 12.7256L39.8301 13.1836L40.0527 12.2822L40.9277 8.72266L37.9834 6.32324L37.2129 5.69531L38.2041 5.61426L42.1182 5.29395L43.6348 1.92188L44 1.11035L44.3643 1.92188Z" fill="white" stroke="black" stroke-width="0.8"/>
<path d="M62.4062 1.92188L63.9229 5.29395L67.8379 5.61426L68.8281 5.69531L68.0576 6.32324L65.1133 8.72266L65.9893 12.2822L66.2109 13.1836L65.4033 12.7256L62.041 10.8193L58.6797 12.7256L57.8721 13.1836L58.0947 12.2822L58.9697 8.72266L56.0254 6.32324L55.2549 5.69531L56.2461 5.61426L60.1602 5.29395L61.6768 1.92188L62.042 1.11035L62.4062 1.92188Z" fill="white" stroke="black" stroke-width="0.8"/>
<path d="M80.4482 1.92188L81.9648 5.29395L85.8799 5.61426L86.8701 5.69531L86.0996 6.32324L83.1553 8.72266L84.0312 12.2822L84.2529 13.1836L83.4453 12.7256L80.083 10.8193L76.7217 12.7256L75.9141 13.1836L76.1367 12.2822L77.0117 8.72266L74.0674 6.32324L73.2969 5.69531L74.2881 5.61426L78.2021 5.29395L79.7188 1.92188L80.084 1.11035L80.4482 1.92188Z" fill="white" stroke="black" stroke-width="0.8"/>
</svg>
