<svg width="24" height="24" viewBox="0 0 24 24" fill="none" xmlns="http://www.w3.org/2000/svg">
<path d="M18.9998 4.40625H9.63281C9.03608 4.40625 8.46378 4.6433 8.04182 5.06526C7.61987 5.48722 7.38281 6.05951 7.38281 6.65625V13.2782C7.38281 13.875 7.61987 14.4473 8.04182 14.8692C8.46378 15.2912 9.03608 15.5282 9.63281 15.5282H12.7763L17.5528 17.6908V15.5287H18.9998C19.5966 15.5287 20.1688 15.2917 20.5908 14.8697C21.0128 14.4478 21.2498 13.8755 21.2498 13.2787V6.65625C21.2498 6.05951 21.0128 5.48722 20.5908 5.06526C20.1688 4.6433 19.5966 4.40625 18.9998 4.40625Z" stroke="#EB1C24" stroke-width="0.7" stroke-linecap="round" stroke-linejoin="round"/>
<path d="M12.085 15.5839V16.5309C12.085 17.4109 11.375 18.1209 10.5 18.1209H8.46L5.285 19.5959V18.1209H4.335C3.46 18.1209 2.75 17.4109 2.75 16.5309V12.1709C2.75 11.2959 3.46 10.5859 4.335 10.5859H7.295" stroke="#EB1C24" stroke-width="0.7" stroke-linecap="round" stroke-linejoin="round"/>
</svg>
